<svg width="107" height="107" viewBox="0 0 107 107" fill="none" xmlns="http://www.w3.org/2000/svg">
<g filter="url(#filter0_d_4_409)">
<path d="M97 33.6815V81.8022C96.9974 84.3652 95.9782 86.8224 94.1659 88.6348C92.3536 90.447 89.8963 91.4663 87.3333 91.4689H71.2222C69.5131 91.4689 67.8739 90.7899 66.6653 89.5813C65.4567 88.3728 64.7778 86.7336 64.7778 85.0244V67.3022C64.7778 66.4476 64.4383 65.628 63.834 65.0238C63.2297 64.4195 62.4101 64.08 61.5556 64.08H45.4444C44.5899 64.08 43.7703 64.4195 43.166 65.0238C42.5617 65.628 42.2222 66.4476 42.2222 67.3022V85.0244C42.2222 86.7336 41.5433 88.3728 40.3347 89.5813C39.1261 90.7899 37.487 91.4689 35.7778 91.4689H19.6667C17.1037 91.4663 14.6464 90.447 12.8341 88.6348C11.0218 86.8224 10.0026 84.3652 10 81.8022V33.6815C10.0024 32.5687 10.2916 31.4753 10.8396 30.5068C11.3877 29.5382 12.1761 28.7273 13.1288 28.1522L50.1843 5.91888C51.1861 5.31762 52.3325 5 53.5008 5C54.6692 5 55.8155 5.31762 56.8173 5.91888L93.8728 28.1522C94.8252 28.7275 95.6133 29.5385 96.1611 30.507C96.7088 31.4756 96.9978 32.5689 97 33.6815Z" fill="white"/>
</g>
<defs>
<filter id="filter0_d_4_409" x="0" y="0" width="107" height="106.469" filterUnits="userSpaceOnUse" color-interpolation-filters="sRGB">
<feFlood flood-opacity="0" result="BackgroundImageFix"/>
<feColorMatrix in="SourceAlpha" type="matrix" values="0 0 0 0 0 0 0 0 0 0 0 0 0 0 0 0 0 0 127 0" result="hardAlpha"/>
<feOffset dy="5"/>
<feGaussianBlur stdDeviation="5"/>
<feComposite in2="hardAlpha" operator="out"/>
<feColorMatrix type="matrix" values="0 0 0 0 0 0 0 0 0 0 0 0 0 0 0 0 0 0 0.25 0"/>
<feBlend mode="normal" in2="BackgroundImageFix" result="effect1_dropShadow_4_409"/>
<feBlend mode="normal" in="SourceGraphic" in2="effect1_dropShadow_4_409" result="shape"/>
</filter>
</defs>
</svg>
