<svg width="1222" height="1241" viewBox="0 0 1222 1241" fill="none" xmlns="http://www.w3.org/2000/svg">
<path d="M42.0302 84.4961C89.7917 36.9159 161.687 27.4941 223.154 26.2693C331.291 24.1023 436.316 65.9351 544.789 56.1364C680.59 43.7938 812.775 -8.21455 950.089 1.11305C1019.88 5.82395 1091.19 10.158 1149.71 58.4919C1272.98 160.342 1208.24 327.108 1167.96 457.129C1152.4 507.347 1137.52 562.653 1132.14 615.604C1120.11 734.413 1202.44 933.59 1051.08 980.228C1031.65 986.258 866.355 932.553 847.099 931.894L505.611 1241L601.127 902.215C665.706 897.504 539.07 882.712 601.127 902.215C514.517 908.528 427.15 951.585 342.81 972.502C270.075 990.592 172.365 1007.93 120.231 931.894C90.5485 888.553 77.8512 826.558 87.6053 773.23C93.1552 743.081 100.218 713.402 102.321 687.963C111.738 574.713 75.1605 466.174 39.928 362.251C10.161 274.628 -33.6484 159.871 42.0302 84.4961Z" fill="url(#paint0_linear_12_1991)"/>
<path d="M1018.62 66.4043C1085.64 81.9503 1162.33 127.269 1168.13 211.218C1177.89 352.733 1086.48 469.658 1078.58 607.97C1073.95 688.621 1101.95 778.882 1037.38 840.029C955.391 917.665 832.371 850.487 740.632 833.905C662.935 819.772 582.968 819.584 505.187 834.188C427.49 848.791 350.046 889.87 270.079 878.659C166.651 864.149 151.6 759.567 165.726 659.884C181.703 547.482 173.715 428.673 130.326 324.373C130.326 324.373 60.7012 140.931 210.461 101.925C385.362 56.323 461.209 191.714 673.698 125.385C764.596 97.0252 856.756 61.1281 952.111 59.1495C972.292 58.6785 995.248 61.0339 1018.54 66.4986L1018.62 66.4043Z" fill="#3B3E5C"/>
<path d="M1006.09 93.3514C1070.92 108.144 1145.09 151.295 1150.64 231.287C1160.06 366.113 1071.68 477.479 1064.03 609.195C1059.57 686.077 1086.65 772.004 1024.25 830.231C944.96 904.192 826.061 840.218 737.348 824.39C662.174 811.011 584.898 810.822 509.724 824.672C434.634 838.522 359.796 877.717 282.436 867.07C182.456 853.315 167.909 753.632 181.531 658.754C196.919 551.628 189.267 438.472 147.307 339.166C147.307 339.166 79.9531 164.486 224.752 127.27C393.767 83.8353 467.176 212.726 672.601 149.6C760.472 122.559 849.521 88.452 941.765 86.4734C961.273 86.0966 983.472 88.2636 1006.01 93.4456L1006.09 93.3514Z" fill="#5E6599"/>
<defs>
<linearGradient id="paint0_linear_12_1991" x1="610.67" y1="0.000143287" x2="611" y2="1878.5" gradientUnits="userSpaceOnUse">
<stop stop-color="#ED312D"/>
<stop offset="1" stop-color="#871C1A"/>
</linearGradient>
</defs>
</svg>
