<svg width="114" height="120" viewBox="0 0 114 120" fill="none" xmlns="http://www.w3.org/2000/svg">
<g filter="url(#filter0_d_9_712)">
<path fill-rule="evenodd" clip-rule="evenodd" d="M100.17 64.0888C96.9272 62.2209 94.9134 58.741 94.9134 55.0031C94.9134 51.267 96.927 47.7871 100.16 45.921C103.479 44.0133 104.859 40.0495 103.441 36.4968C101.663 32.0091 99.2432 27.8175 96.2653 24.0368C93.8925 21.0268 89.7707 20.2384 86.4526 22.1584C83.2196 24.0368 79.1922 24.0425 75.9498 22.1725C72.7166 20.3026 70.7125 16.817 70.722 13.0725C70.722 9.24179 67.9804 6.06266 64.1896 5.51439C59.425 4.8243 54.5849 4.82813 49.8012 5.52851C46.0198 6.08062 43.2784 9.25793 43.2876 13.081C43.2876 16.8209 41.2833 20.3044 38.0504 22.1725C34.8077 24.0405 30.79 24.0366 27.5475 22.1602C24.2294 20.2403 20.1076 21.0324 17.7348 24.0425C16.26 25.9181 14.8986 27.9232 13.6981 30.0058C12.4975 32.0847 11.4481 34.2637 10.5596 36.4786C9.13197 40.037 10.5124 44.0065 13.8305 45.919C17.0731 47.7851 19.0867 51.2668 19.0867 55.0029C19.0867 58.739 17.0731 62.2179 13.8399 64.0868C10.5218 65.9947 9.14166 69.9565 10.5596 73.5082C12.3369 77.9987 14.757 82.1905 17.7348 85.969C20.1076 88.979 24.2294 89.7674 27.5475 87.8474C30.7807 85.969 34.8079 85.9651 38.0504 87.8333C41.2833 89.7032 43.2876 93.1888 43.2876 96.9333C43.2782 100.763 46.029 103.942 49.8105 104.492C52.1834 104.835 54.5657 105.006 56.9478 105.006C59.3681 105.006 61.7881 104.83 64.1987 104.477C67.9802 103.924 70.7216 100.75 70.7216 96.9267C70.7121 93.1849 72.7162 89.7012 75.9494 87.8333C79.1918 85.9653 83.2097 85.9692 86.4522 87.8456C89.7703 89.7656 93.8921 88.9752 96.2649 85.9633C97.7397 84.0867 99.1011 82.0816 100.302 80.0018C101.493 77.9231 102.561 75.7439 103.44 73.5272C104.868 69.9688 103.488 65.9983 100.17 64.0888ZM69.8616 62.4307C67.8858 65.8662 64.681 68.325 60.8431 69.3517C57.0144 70.3783 53.006 69.8518 49.5743 67.8665C42.4842 63.7711 40.0452 54.6703 44.1385 47.5753C46.8801 42.8163 51.8905 40.1524 57.0237 40.1524C59.5478 40.1524 62.0909 40.7914 64.4258 42.1395C71.5159 46.2339 73.955 55.3376 69.8616 62.4307Z" fill="white"/>
</g>
<defs>
<filter id="filter0_d_9_712" x="0" y="0" width="114" height="120.006" filterUnits="userSpaceOnUse" color-interpolation-filters="sRGB">
<feFlood flood-opacity="0" result="BackgroundImageFix"/>
<feColorMatrix in="SourceAlpha" type="matrix" values="0 0 0 0 0 0 0 0 0 0 0 0 0 0 0 0 0 0 127 0" result="hardAlpha"/>
<feOffset dy="5"/>
<feGaussianBlur stdDeviation="5"/>
<feComposite in2="hardAlpha" operator="out"/>
<feColorMatrix type="matrix" values="0 0 0 0 0 0 0 0 0 0 0 0 0 0 0 0 0 0 0.25 0"/>
<feBlend mode="normal" in2="BackgroundImageFix" result="effect1_dropShadow_9_712"/>
<feBlend mode="normal" in="SourceGraphic" in2="effect1_dropShadow_9_712" result="shape"/>
</filter>
</defs>
</svg>
