<svg width="451" height="148" viewBox="0 0 451 148" fill="none" xmlns="http://www.w3.org/2000/svg">
<g filter="url(#filter0_d_12_1624)">
<path d="M181.811 132.53L149.326 76.2658C147.014 72.2635 147.014 67.3314 149.326 63.3277L181.811 7.06331C184.122 3.0596 188.393 0.594238 193.015 0.594238H257.984C262.607 0.594238 266.877 3.0596 269.189 7.06331L301.674 63.3277C303.986 67.3299 303.986 72.2621 301.674 76.2658L269.189 132.53C266.879 136.534 262.607 138.999 257.984 138.999H193.015C188.393 138.999 184.122 136.532 181.811 132.53Z" fill="url(#paint0_linear_12_1624)"/>
<path d="M181.811 132.53L182.326 132.233L149.841 75.9686C148.739 74.0586 148.188 71.929 148.188 69.7966C148.188 67.6656 148.739 65.5346 149.841 63.6246L182.326 7.36022C184.53 3.54163 188.605 1.1882 193.015 1.1882H257.984C262.394 1.1882 266.47 3.5402 268.674 7.36022L301.159 63.6246C302.261 65.5346 302.812 67.6656 302.812 69.7966C302.812 71.9276 302.261 74.0586 301.159 75.9686L268.674 132.233C266.47 136.052 262.394 138.405 257.984 138.405H193.015C188.605 138.405 184.53 136.053 182.326 132.233L181.811 132.53L181.295 132.827C183.713 137.014 188.181 139.593 193.015 139.593H257.984C262.819 139.593 267.286 137.014 269.703 132.827L302.187 76.5627C303.396 74.469 304 72.1328 304 69.7966C304 67.4604 303.396 65.1242 302.187 63.0305L269.703 6.76612C267.285 2.57873 262.818 0 257.984 0H193.015C188.181 0 183.713 2.57873 181.295 6.76612L148.812 63.0305C147.604 65.1242 147 67.4604 147 69.7966C147 72.1328 147.604 74.469 148.812 76.5627L181.295 132.827L181.811 132.53Z" fill="url(#paint1_linear_12_1624)"/>
<path d="M277.862 32.6606L169.376 100.414L185.15 127.735C187.284 131.432 191.229 133.709 195.498 133.709H255.502C259.771 133.709 263.716 131.432 265.85 127.735L295.852 75.7701C297.986 72.0735 297.986 67.5188 295.852 63.8207L277.862 32.6606Z" fill="url(#paint2_radial_12_1624)"/>
<path d="M265.85 11.8563C263.716 8.1597 259.771 5.88232 255.502 5.88232H195.498C191.229 5.88232 187.284 8.1597 185.15 11.8563L155.148 63.8213C153.014 67.5179 153.014 72.0727 155.148 75.7707L169.376 100.414L277.862 32.6613L265.85 11.8563Z" fill="url(#paint3_radial_12_1624)"/>
<path d="M187.194 124.801L158.711 75.4679C156.685 71.9578 156.685 67.6341 158.711 64.124L187.194 14.7909C189.22 11.2808 192.965 9.11963 197.018 9.11963H253.982C258.035 9.11963 261.78 11.2822 263.806 14.7909L292.289 64.124C294.315 67.6341 294.315 71.9578 292.289 75.4679L263.806 124.801C261.78 128.311 258.035 130.472 253.982 130.472H197.018C192.965 130.472 189.22 128.311 187.194 124.801Z" fill="url(#paint4_linear_12_1624)"/>
<path d="M187.193 124.801L187.709 124.504L159.226 75.1706C158.266 73.5074 157.785 71.652 157.785 69.7965C157.785 67.9396 158.265 66.0841 159.226 64.4223L187.709 15.0891C189.629 11.7628 193.177 9.715 197.018 9.715H253.982C257.822 9.715 261.371 11.7642 263.291 15.0891L291.773 64.4223C292.733 66.0855 293.213 67.941 293.213 69.7965C293.213 71.652 292.732 73.5074 291.773 75.1706L263.291 124.504C261.371 127.83 257.822 129.878 253.982 129.878H197.018C193.177 129.878 189.629 127.829 187.709 124.504L187.193 124.801L186.678 125.098C188.811 128.792 192.751 131.068 197.018 131.068H253.982C258.247 131.068 262.188 128.793 264.322 125.098L292.804 75.7647C293.87 73.9179 294.404 71.8572 294.404 69.7965C294.404 67.7358 293.87 65.6737 292.804 63.8268L264.322 14.4936C262.189 10.7999 258.248 8.52393 253.982 8.52393H197.018C192.753 8.52393 188.812 10.7999 186.678 14.4936L158.196 63.8268C157.13 65.6737 156.596 67.7344 156.597 69.7965C156.597 71.8572 157.13 73.9193 158.196 75.7647L186.678 125.098L187.193 124.801Z" fill="url(#paint5_linear_12_1624)"/>
<path d="M281.688 60.0461C281.685 57.1216 280.681 54.2788 278.822 52C276.974 49.7211 274.204 48.0293 270.92 47.56L247.322 44.1318L236.769 22.7485C235.644 20.4596 233.923 18.6673 231.94 17.4963C229.956 16.321 227.724 15.7441 225.501 15.7441C223.278 15.7441 221.047 16.321 219.062 17.4963C217.079 18.6673 215.359 20.4582 214.233 22.7485L203.68 44.1318L180.083 47.56C176.798 48.0293 174.028 49.7211 172.18 52C170.323 54.2788 169.317 57.1216 169.314 60.0461C169.302 63.2003 170.543 66.4951 173.119 68.9935L190.194 85.6383L186.163 109.14C186.037 109.876 185.975 110.608 185.975 111.328C185.971 114.873 187.479 118.048 189.776 120.265C192.072 122.49 195.188 123.846 198.546 123.85C200.493 123.853 202.511 123.379 204.395 122.386L225.501 111.289L246.608 122.386C248.492 123.379 250.508 123.852 252.457 123.85C255.815 123.846 258.93 122.49 261.226 120.265C263.524 118.048 265.032 114.873 265.028 111.328C265.028 110.608 264.966 109.876 264.84 109.14L260.809 85.6369L277.884 68.9921C280.461 66.4951 281.701 63.2003 281.688 60.0461Z" fill="url(#paint6_linear_12_1624)"/>
<path d="M281.688 60.0455L282.259 60.044C282.256 56.9889 281.206 54.0184 279.266 51.6377L279.256 51.6262L279.266 51.6391C277.33 49.2527 274.431 47.4847 271 46.9939L247.701 43.6087L237.281 22.4952C236.106 20.1045 234.308 18.2304 232.23 17.0034C230.155 15.7736 227.822 15.1709 225.5 15.1709C223.178 15.1709 220.845 15.7736 218.77 17.0034C216.693 18.2304 214.895 20.1031 213.72 22.4952L203.299 43.6073L179.998 46.9925C176.567 47.4833 173.67 49.2498 171.732 51.6377L171.734 51.6362C169.792 54.0169 168.743 56.9874 168.74 60.0426V60.0411V60.0899C168.74 63.379 170.039 66.803 172.718 69.4004L172.717 69.3989L189.577 85.8342L185.598 109.04L186.162 109.136H186.733L185.598 109.04L185.596 109.05L186.723 109.239L185.598 109.039C185.466 109.806 185.401 110.571 185.401 111.323L185.408 111.411L185.974 111.323L185.403 111.313V111.335C185.403 115.038 186.98 118.355 189.379 120.671C191.775 122.993 195.032 124.412 198.544 124.415H198.559C200.595 124.415 202.699 123.92 204.661 122.885L225.501 111.929L246.342 122.885C248.304 123.918 250.408 124.415 252.444 124.415H252.451H252.454H252.458C255.971 124.41 259.227 122.991 261.625 120.669C264.024 118.355 265.6 115.038 265.6 111.335V111.326L265.147 111.327L265.599 111.35L265.6 111.326L265.145 111.327L265.597 111.35V111.336V111.322C265.597 110.57 265.533 109.803 265.401 109.037L261.42 85.8299L278.28 69.3946L278.279 69.396C280.958 66.7972 282.256 63.3733 282.256 60.0856V60.044V60.0383L281.688 60.0455L281.117 60.0397V60.0914C281.117 63.082 279.935 66.2075 277.486 68.5824L260.194 85.4382L264.276 109.237C264.396 109.941 264.455 110.64 264.455 111.327V111.329H265.026L264.455 111.3L264.454 111.337V111.342C264.454 114.717 263.016 117.742 260.826 119.856C258.63 121.982 255.655 123.277 252.452 123.28V123.851L252.46 123.28H252.44C250.588 123.28 248.667 122.829 246.87 121.882L225.497 110.646L204.124 121.882C202.326 122.829 200.406 123.28 198.554 123.28H198.544C195.343 123.275 192.368 121.982 190.173 119.856C187.981 117.742 186.543 114.717 186.545 111.342V111.339L186.546 111.29L186.539 111.241L185.982 111.327H186.545L186.539 111.241L185.981 111.327H186.545C186.545 110.64 186.602 109.941 186.724 109.237L185.599 109.037L186.162 109.14L186.726 109.232L186.162 109.136L185.591 109.138L186.726 109.232L190.807 85.4367L173.515 68.5838L173.513 68.5824C171.064 66.2089 169.883 63.0834 169.883 60.0914V60.0469C169.886 57.2529 170.846 54.5364 172.619 52.3595L172.621 52.358C174.382 50.1883 177.023 48.5724 180.162 48.1247L204.059 44.652L214.746 22.9989C215.822 20.8105 217.464 19.1014 219.352 17.9864C221.245 16.8642 223.376 16.3132 225.501 16.3132C227.625 16.3132 229.756 16.8642 231.649 17.9864C233.537 19.1014 235.181 20.8105 236.257 22.9989L246.943 44.652L270.839 48.1247C273.978 48.5724 276.621 50.1883 278.38 52.358L278.382 52.3595C280.156 54.5364 281.116 57.2515 281.118 60.0455H281.688Z" fill="url(#paint7_linear_12_1624)"/>
<mask id="mask0_12_1624" style="mask-type:luminance" maskUnits="userSpaceOnUse" x="172" y="19" width="107" height="102">
<path d="M233.694 24.2649L245.045 47.2654L270.428 50.9534C277.921 52.0426 280.915 61.2526 275.492 66.5378L257.125 84.4411L261.46 109.72C262.74 117.184 254.906 122.877 248.203 119.352L225.501 107.417L202.799 119.352C196.096 122.877 188.263 117.184 189.543 109.72L193.878 84.4411L175.511 66.5378C170.088 61.2511 173.08 52.0426 180.575 50.9534L205.958 47.2654L217.309 24.2649C220.658 17.4729 230.342 17.4729 233.694 24.2649Z" fill="white"/>
</mask>
<g mask="url(#mask0_12_1624)">
<path d="M233.694 24.2649L245.045 47.2654L270.428 50.9534C277.921 52.0426 280.915 61.2526 275.492 66.5378L257.125 84.4411L261.46 109.72C262.74 117.184 254.906 122.877 248.203 119.352L225.501 107.417L202.799 119.352C196.096 122.877 188.263 117.184 189.543 109.72L193.878 84.4411L175.511 66.5378C170.088 61.2511 173.08 52.0426 180.575 50.9534L205.958 47.2654L217.309 24.2649C220.658 17.4729 230.342 17.4729 233.694 24.2649Z" fill="url(#paint8_linear_12_1624)"/>
</g>
<mask id="mask1_12_1624" style="mask-type:luminance" maskUnits="userSpaceOnUse" x="172" y="19" width="107" height="102">
<path d="M233.694 24.2649L245.045 47.2654L270.428 50.9534C277.921 52.0426 280.915 61.2526 275.492 66.5378L257.125 84.4411L261.46 109.72C262.74 117.184 254.906 122.877 248.203 119.352L225.501 107.417L202.799 119.352C196.096 122.877 188.263 117.184 189.543 109.72L193.878 84.4411L175.511 66.5378C170.088 61.2511 173.08 52.0426 180.575 50.9534L205.958 47.2654L217.309 24.2649C220.658 17.4729 230.342 17.4729 233.694 24.2649Z" fill="white"/>
</mask>
<g mask="url(#mask1_12_1624)">
<path d="M232.454 24.7028L244.116 48.3348L270.195 52.1247C276.555 53.0488 279.095 60.8654 274.493 65.3513L255.622 83.7454L260.077 109.719C261.163 116.053 254.515 120.885 248.825 117.895L225.5 105.631L202.175 117.893C196.485 120.884 189.837 116.053 190.923 109.718L195.377 83.7439L176.507 65.3498C171.905 60.8639 174.445 53.0474 180.805 52.1232L206.883 48.3333L218.546 24.7014C221.391 18.9398 229.61 18.9398 232.454 24.7028Z" fill="url(#paint9_linear_12_1624)"/>
</g>
<mask id="mask2_12_1624" style="mask-type:luminance" maskUnits="userSpaceOnUse" x="172" y="19" width="107" height="102">
<path d="M233.694 24.2649L245.045 47.2654L270.428 50.9534C277.921 52.0426 280.915 61.2526 275.492 66.5378L257.125 84.4411L261.46 109.72C262.74 117.184 254.906 122.877 248.203 119.352L225.501 107.417L202.799 119.352C196.096 122.877 188.263 117.184 189.543 109.72L193.878 84.4411L175.511 66.5378C170.088 61.2511 173.08 52.0426 180.575 50.9534L205.958 47.2654L217.309 24.2649C220.658 17.4729 230.342 17.4729 233.694 24.2649Z" fill="white"/>
</mask>
<g mask="url(#mask2_12_1624)">
<path opacity="0.6" d="M231.569 25.1317L243.415 49.1353L264.112 52.1431C272.032 53.294 275.195 63.0263 269.463 68.6129L254.486 83.2113L257.263 99.4041C258.926 109.101 248.749 116.495 240.039 111.918L227.549 105.351C226.265 104.676 224.731 104.676 223.448 105.351L210.957 111.918C202.25 116.495 192.071 109.101 193.734 99.4041L196.511 83.2113L177.343 64.5273C173.327 60.6126 175.544 53.7905 181.095 52.984L207.584 49.1353L219.43 25.1317C221.914 20.1019 229.086 20.1019 231.569 25.1317Z" fill="url(#paint10_linear_12_1624)"/>
</g>
<mask id="mask3_12_1624" style="mask-type:luminance" maskUnits="userSpaceOnUse" x="172" y="19" width="107" height="102">
<path d="M233.694 24.2649L245.045 47.2654L270.428 50.9534C277.921 52.0426 280.915 61.2526 275.492 66.5378L257.125 84.4411L261.46 109.72C262.74 117.184 254.906 122.877 248.203 119.352L225.501 107.417L202.799 119.352C196.096 122.877 188.263 117.184 189.543 109.72L193.878 84.4411L175.511 66.5378C170.088 61.2511 173.08 52.0426 180.575 50.9534L205.958 47.2654L217.309 24.2649C220.658 17.4729 230.342 17.4729 233.694 24.2649Z" fill="white"/>
</mask>
<g mask="url(#mask3_12_1624)">
<path d="M230.125 26.1584L242.188 50.6011L257.745 52.8613C266.645 54.1542 270.199 65.092 263.759 71.3702L252.501 82.3438L255.089 97.4273C256.638 106.459 247.157 113.347 239.045 109.084L227.41 102.967C226.213 102.338 224.785 102.338 223.588 102.967L211.953 109.084C203.841 113.349 194.36 106.461 195.91 97.4273L198.497 82.3438L178.979 63.3183C175.918 60.3349 177.607 55.1358 181.838 54.5216L208.812 50.6011L220.875 26.1584C222.768 22.3255 228.234 22.3255 230.125 26.1584Z" fill="url(#paint11_linear_12_1624)"/>
</g>
<mask id="mask4_12_1624" style="mask-type:luminance" maskUnits="userSpaceOnUse" x="172" y="19" width="107" height="102">
<path d="M233.694 24.2649L245.045 47.2654L270.428 50.9534C277.921 52.0426 280.915 61.2526 275.492 66.5378L257.125 84.4411L261.46 109.72C262.74 117.184 254.906 122.877 248.203 119.352L225.501 107.417L202.799 119.352C196.096 122.877 188.263 117.184 189.543 109.72L193.878 84.4411L175.511 66.5378C170.088 61.2511 173.08 52.0426 180.575 50.9534L205.958 47.2654L217.309 24.2649C220.658 17.4729 230.342 17.4729 233.694 24.2649Z" fill="white"/>
</mask>
<g mask="url(#mask4_12_1624)">
<path d="M245.293 76.9933C247.007 80.1518 255.067 79.0956 263.297 74.6341C271.527 70.1726 276.811 63.9934 275.099 60.8349C273.387 57.6765 265.325 58.7326 257.095 63.1941C248.863 67.6556 243.58 73.8334 245.293 76.9933Z" fill="url(#paint12_linear_12_1624)"/>
</g>
<mask id="mask5_12_1624" style="mask-type:luminance" maskUnits="userSpaceOnUse" x="172" y="19" width="107" height="102">
<path d="M233.694 24.2649L245.045 47.2654L270.428 50.9534C277.921 52.0426 280.915 61.2526 275.492 66.5378L257.125 84.4411L261.46 109.72C262.74 117.184 254.906 122.877 248.203 119.352L225.501 107.417L202.799 119.352C196.096 122.877 188.263 117.184 189.543 109.72L193.878 84.4411L175.511 66.5378C170.088 61.2511 173.08 52.0426 180.575 50.9534L205.958 47.2654L217.309 24.2649C220.658 17.4729 230.342 17.4729 233.694 24.2649Z" fill="white"/>
</mask>
<g mask="url(#mask5_12_1624)">
<path d="M260.077 109.719L258.77 102.095C257.32 93.641 247.5 89.6474 240.562 94.6886C233.624 99.7298 234.387 110.303 241.978 114.294L248.826 117.893C254.515 120.883 261.163 116.053 260.077 109.719Z" fill="url(#paint13_linear_12_1624)"/>
</g>
<mask id="mask6_12_1624" style="mask-type:luminance" maskUnits="userSpaceOnUse" x="172" y="19" width="107" height="102">
<path d="M233.694 24.2649L245.045 47.2654L270.428 50.9534C277.921 52.0426 280.915 61.2526 275.492 66.5378L257.125 84.4411L261.46 109.72C262.74 117.184 254.906 122.877 248.203 119.352L225.501 107.417L202.799 119.352C196.096 122.877 188.263 117.184 189.543 109.72L193.878 84.4411L175.511 66.5378C170.088 61.2511 173.08 52.0426 180.575 50.9534L205.958 47.2654L217.309 24.2649C220.658 17.4729 230.342 17.4729 233.694 24.2649Z" fill="white"/>
</mask>
<g mask="url(#mask6_12_1624)">
<path d="M195.171 58.3339C202.481 63.0249 206.588 69.6634 204.343 73.1605C202.099 76.6577 194.354 75.6905 187.044 70.9994C179.734 66.3083 175.629 59.6699 177.873 56.1727C180.117 52.6756 187.861 53.6428 195.171 58.3339Z" fill="url(#paint14_linear_12_1624)"/>
</g>
<mask id="mask7_12_1624" style="mask-type:luminance" maskUnits="userSpaceOnUse" x="172" y="19" width="107" height="102">
<path d="M233.694 24.2649L245.045 47.2654L270.428 50.9534C277.921 52.0426 280.915 61.2526 275.492 66.5378L257.125 84.4411L261.46 109.72C262.74 117.184 254.906 122.877 248.203 119.352L225.501 107.417L202.799 119.352C196.096 122.877 188.263 117.184 189.543 109.72L193.878 84.4411L175.511 66.5378C170.088 61.2511 173.08 52.0426 180.575 50.9534L205.958 47.2654L217.309 24.2649C220.658 17.4729 230.342 17.4729 233.694 24.2649Z" fill="white"/>
</mask>
<g mask="url(#mask7_12_1624)">
<path opacity="0.36" d="M236.257 124.998C269.102 68.0708 249.58 -4.70488 192.651 -37.5497C190.088 -39.0277 187.483 -40.3637 184.862 -41.6309C228.245 -11.7724 242.087 46.8942 215.314 93.2999C196.626 125.691 162.855 143.949 127.989 144.335L159.599 181.554C190.774 174.446 219.017 154.878 236.257 124.998Z" fill="url(#paint15_linear_12_1624)"/>
</g>
<mask id="mask8_12_1624" style="mask-type:luminance" maskUnits="userSpaceOnUse" x="172" y="19" width="107" height="102">
<path d="M233.694 24.2649L245.045 47.2654L270.428 50.9534C277.921 52.0426 280.915 61.2526 275.492 66.5378L257.125 84.4411L261.46 109.72C262.74 117.184 254.906 122.877 248.203 119.352L225.501 107.417L202.799 119.352C196.096 122.877 188.263 117.184 189.543 109.72L193.878 84.4411L175.511 66.5378C170.088 61.2511 173.08 52.0426 180.575 50.9534L205.958 47.2654L217.309 24.2649C220.658 17.4729 230.342 17.4729 233.694 24.2649Z" fill="white"/>
</mask>
<g mask="url(#mask8_12_1624)">
<path opacity="0.6" d="M260.804 162.115C307.465 81.2402 279.731 -22.1488 198.856 -68.81C195.215 -70.9108 191.514 -72.8079 187.789 -74.6089C249.422 -32.1896 269.089 51.155 231.052 117.081C204.501 163.098 156.526 189.036 106.991 189.584L151.899 242.459C196.19 232.364 236.313 204.565 260.804 162.115Z" fill="url(#paint16_linear_12_1624)"/>
</g>
<mask id="mask9_12_1624" style="mask-type:luminance" maskUnits="userSpaceOnUse" x="172" y="19" width="107" height="102">
<path d="M233.694 24.2649L245.045 47.2654L270.428 50.9534C277.921 52.0426 280.915 61.2526 275.492 66.5378L257.125 84.4411L261.46 109.72C262.74 117.184 254.906 122.877 248.203 119.352L225.501 107.417L202.799 119.352C196.096 122.877 188.263 117.184 189.543 109.72L193.878 84.4411L175.511 66.5378C170.088 61.2511 173.08 52.0426 180.575 50.9534L205.958 47.2654L217.309 24.2649C220.658 17.4729 230.342 17.4729 233.694 24.2649Z" fill="white"/>
</mask>
<g mask="url(#mask9_12_1624)">
<path opacity="0.4" d="M224.95 73.211C252.012 73.211 273.951 60.8201 273.951 45.5352C273.951 30.2503 252.012 17.8594 224.95 17.8594C197.888 17.8594 175.95 30.2503 175.95 45.5352C175.95 60.8201 197.888 73.211 224.95 73.211Z" fill="url(#paint17_linear_12_1624)"/>
</g>
<mask id="mask10_12_1624" style="mask-type:luminance" maskUnits="userSpaceOnUse" x="172" y="19" width="107" height="102">
<path d="M233.694 24.2649L245.045 47.2654L270.428 50.9534C277.921 52.0426 280.915 61.2526 275.492 66.5378L257.125 84.4411L261.46 109.72C262.74 117.184 254.906 122.877 248.203 119.352L225.501 107.417L202.799 119.352C196.096 122.877 188.263 117.184 189.543 109.72L193.878 84.4411L175.511 66.5378C170.088 61.2511 173.08 52.0426 180.575 50.9534L205.958 47.2654L217.309 24.2649C220.658 17.4729 230.342 17.4729 233.694 24.2649Z" fill="white"/>
</mask>
<g mask="url(#mask10_12_1624)">
<path d="M235.023 30.6526C236.454 34.3378 236.683 37.6857 235.535 38.132C234.387 38.5783 232.296 35.9522 230.866 32.267C229.435 28.5819 229.205 25.234 230.353 24.7877C231.501 24.3414 233.592 26.9675 235.023 30.6526Z" fill="white"/>
<path d="M238.754 42.9044C239.425 44.6336 239.44 46.2409 238.785 46.4949C238.131 46.7489 237.056 45.5535 236.385 43.8243C235.713 42.0951 235.699 40.4879 236.353 40.2339C237.007 39.9813 238.082 41.1767 238.754 42.9044Z" fill="white"/>
</g>
<mask id="mask11_12_1624" style="mask-type:luminance" maskUnits="userSpaceOnUse" x="172" y="19" width="107" height="102">
<path d="M233.694 24.2649L245.045 47.2654L270.428 50.9534C277.921 52.0426 280.915 61.2526 275.492 66.5378L257.125 84.4411L261.46 109.72C262.74 117.184 254.906 122.877 248.203 119.352L225.501 107.417L202.799 119.352C196.096 122.877 188.263 117.184 189.543 109.72L193.878 84.4411L175.511 66.5378C170.088 61.2511 173.08 52.0426 180.575 50.9534L205.958 47.2654L217.309 24.2649C220.658 17.4729 230.342 17.4729 233.694 24.2649Z" fill="white"/>
</mask>
<g mask="url(#mask11_12_1624)">
<path d="M208.918 112.183C206.512 113.686 204.158 114.258 203.66 113.462C203.162 112.665 204.711 110.801 207.116 109.299C209.522 107.796 215.68 104.847 216.178 105.644C216.676 106.44 211.323 110.681 208.918 112.183Z" fill="url(#paint18_linear_12_1624)"/>
</g>
<mask id="mask12_12_1624" style="mask-type:luminance" maskUnits="userSpaceOnUse" x="172" y="19" width="107" height="102">
<path d="M233.694 24.2649L245.045 47.2654L270.428 50.9534C277.921 52.0426 280.915 61.2526 275.492 66.5378L257.125 84.4411L261.46 109.72C262.74 117.184 254.906 122.877 248.203 119.352L225.501 107.417L202.799 119.352C196.096 122.877 188.263 117.184 189.543 109.72L193.878 84.4411L175.511 66.5378C170.088 61.2511 173.08 52.0426 180.575 50.9534L205.958 47.2654L217.309 24.2649C220.658 17.4729 230.342 17.4729 233.694 24.2649Z" fill="white"/>
</mask>
<g mask="url(#mask12_12_1624)">
<path d="M246.797 110.764C248.49 111.524 249.66 112.595 249.407 113.156C249.156 113.717 247.579 113.555 245.884 112.794C244.19 112.034 240.344 109.761 240.595 109.2C240.848 108.639 245.104 110.003 246.797 110.764Z" fill="url(#paint19_linear_12_1624)"/>
</g>
<mask id="mask13_12_1624" style="mask-type:luminance" maskUnits="userSpaceOnUse" x="172" y="19" width="107" height="102">
<path d="M233.694 24.2649L245.045 47.2654L270.428 50.9534C277.921 52.0426 280.915 61.2526 275.492 66.5378L257.125 84.4411L261.46 109.72C262.74 117.184 254.906 122.877 248.203 119.352L225.501 107.417L202.799 119.352C196.096 122.877 188.263 117.184 189.543 109.72L193.878 84.4411L175.511 66.5378C170.088 61.2511 173.08 52.0426 180.575 50.9534L205.958 47.2654L217.309 24.2649C220.658 17.4729 230.342 17.4729 233.694 24.2649Z" fill="white"/>
</mask>
<g mask="url(#mask13_12_1624)">
<path d="M183.527 61.4956C186.413 63.8777 188.009 66.7105 187.09 67.8226C186.172 68.9347 183.089 67.9058 180.204 65.5237C177.318 63.1416 175.722 60.3088 176.64 59.1967C177.557 58.0846 180.641 59.1135 183.527 61.4956Z" fill="white"/>
</g>
<path d="M338.968 111.368L326.651 65.401C325.774 62.131 326.71 58.6414 329.104 56.2469L362.755 22.5969C365.149 20.2025 368.638 19.2678 371.908 20.1441L417.876 32.461C421.146 33.3373 423.7 35.8912 424.577 39.1622L436.894 85.1291C437.771 88.3991 436.836 91.8887 434.441 94.2832L400.791 127.933C398.397 130.328 394.907 131.262 391.637 130.386L345.67 118.069C342.399 117.193 339.845 114.638 338.968 111.368Z" fill="url(#paint20_linear_12_1624)"/>
<path d="M338.968 111.368L339.389 111.255L327.072 65.2884C326.655 63.7281 326.668 62.1169 327.073 60.6081C327.477 59.1004 328.271 57.6971 329.412 56.5547L363.063 22.9047C365.346 20.6208 368.676 19.7283 371.796 20.5643L417.763 32.8812C420.883 33.7173 423.321 36.154 424.156 39.2746L436.473 85.2415C436.891 86.8018 436.877 88.414 436.473 89.9218C436.069 91.4295 435.275 92.8328 434.133 93.9752L400.483 127.625C398.199 129.909 394.87 130.802 391.75 129.966L345.782 117.649C342.662 116.813 340.225 114.376 339.389 111.255L338.968 111.368L338.548 111.48C339.465 114.901 342.136 117.573 345.557 118.489L391.524 130.806C394.945 131.723 398.594 130.745 401.098 128.241L434.748 94.5906C436 93.3384 436.871 91.8 437.313 90.147C437.756 88.4941 437.772 86.7267 437.314 85.0162L424.997 39.0493C424.08 35.6282 421.408 32.9568 417.989 32.0405L372.021 19.7236C368.601 18.8071 364.951 19.7847 362.446 22.289L328.797 55.9393C327.545 57.1915 326.675 58.7299 326.232 60.3829C325.789 62.0358 325.774 63.8032 326.232 65.5137L338.548 111.48L338.968 111.368Z" fill="url(#paint21_linear_12_1624)"/>
<path d="M425.861 58.917L336.259 86.2871L342.24 108.608C343.049 111.628 345.408 113.987 348.429 114.797L390.883 126.172C393.904 126.982 397.127 126.118 399.337 123.907L430.416 92.8285C432.627 90.6176 433.49 87.395 432.681 84.374L425.861 58.917Z" fill="url(#paint22_radial_12_1624)"/>
<path d="M421.306 41.9199C420.497 38.9 418.137 36.5408 415.117 35.7314L372.663 24.3558C369.642 23.5465 366.419 24.4099 364.209 26.6208L333.13 57.6995C330.919 59.9105 330.056 63.1331 330.864 66.1541L336.259 86.2875L425.861 58.9173L421.306 41.9199Z" fill="url(#paint23_radial_12_1624)"/>
<path d="M344.242 106.92L333.443 66.6154C332.675 63.7478 333.494 60.6887 335.593 58.5894L365.098 29.0846C367.197 26.9853 370.257 26.1663 373.124 26.9346L413.428 37.734C416.295 38.5022 418.535 40.7424 419.304 43.609L430.103 83.9131C430.871 86.7807 430.051 89.8399 427.952 91.9392L398.448 121.444C396.349 123.543 393.289 124.362 390.422 123.594L350.118 112.795C347.251 112.026 345.01 109.787 344.242 106.92Z" fill="url(#paint24_linear_12_1624)"/>
<path d="M344.242 106.919L344.663 106.807L333.864 66.5027C333.5 65.144 333.511 63.74 333.863 62.4272C334.215 61.1134 334.906 59.8915 335.901 58.898L365.406 29.3933C367.395 27.4038 370.294 26.6277 373.011 27.3557L413.315 38.1551C416.032 38.8831 418.154 41.0058 418.883 43.7223L429.682 84.0264C430.046 85.3852 430.033 86.7889 429.681 88.1017C429.33 89.4145 428.638 90.6361 427.644 91.6311L398.14 121.136C396.15 123.125 393.251 123.901 390.534 123.173L350.231 112.374C347.514 111.646 345.391 109.523 344.663 106.807L344.242 106.919L343.821 107.032C344.63 110.05 346.986 112.407 350.005 113.216L390.309 124.015C393.326 124.824 396.546 123.961 398.756 121.752L428.261 92.2468C429.365 91.1422 430.133 89.7855 430.524 88.3275C430.915 86.8695 430.928 85.3093 430.524 83.8004L419.724 43.4963C418.916 40.4786 416.559 38.1212 413.541 37.3124L373.237 26.513C370.219 25.7045 367 26.5677 364.79 28.7766L335.285 58.2813C334.181 59.3859 333.412 60.7427 333.022 62.202C332.632 63.66 332.618 65.2199 333.022 66.7277L343.821 107.032L344.242 106.919Z" fill="url(#paint25_linear_12_1624)"/>
<path d="M423.376 79.0183C423.928 76.9486 423.757 74.7468 422.874 72.7822C421.998 70.8194 420.359 69.0973 418.124 68.1426L402.078 61.2434L398.665 44.1135C398.303 42.2808 397.426 40.6865 396.245 39.482C395.063 38.2742 393.594 37.443 392.021 37.0216C390.448 36.6002 388.76 36.5853 387.133 37.0406C385.508 37.4931 383.951 38.434 382.721 39.8412L371.201 52.9697L353.855 50.9217C351.442 50.6309 349.161 51.3029 347.422 52.5649C345.676 53.8251 344.425 55.6458 343.869 57.7144C343.262 59.9436 343.515 62.5101 344.864 64.7661L353.79 79.7799L346.482 95.6435C346.253 96.1404 346.071 96.6465 345.934 97.1562C345.259 99.6632 345.724 102.196 346.93 104.2C348.132 106.209 350.08 107.759 352.455 108.399C353.832 108.77 355.349 108.818 356.871 108.472L373.908 104.622L386.737 116.475C387.882 117.535 389.219 118.251 390.598 118.62C392.975 119.253 395.436 118.884 397.482 117.746C399.528 116.613 401.197 114.652 401.866 112.143C402.003 111.633 402.098 111.104 402.148 110.559L403.752 93.1661L418.988 84.6266C421.285 83.3485 422.787 81.2524 423.376 79.0183Z" fill="url(#paint26_linear_12_1624)"/>
<path d="M423.376 79.0181L423.78 79.1253C424.358 76.9632 424.178 74.6623 423.256 72.6101L423.251 72.6001L423.256 72.6111C422.339 70.5557 420.623 68.7553 418.288 67.7575L402.445 60.9454L399.076 44.0317C398.698 42.1173 397.781 40.4505 396.543 39.1884C395.308 37.9249 393.772 37.0561 392.129 36.616C390.486 36.1758 388.721 36.1599 387.02 36.6366C385.318 37.111 383.691 38.0951 382.406 39.5648L371.03 52.5265L353.902 50.5043C351.382 50.2011 348.997 50.9016 347.174 52.2238L347.175 52.2231C345.35 53.5394 344.045 55.4423 343.463 57.6033L343.464 57.6023L343.454 57.6368C342.831 59.9639 343.101 62.6327 344.504 64.9783L344.503 64.977L353.316 79.8018L346.101 95.466L346.482 95.641L346.886 95.7492L346.101 95.466L346.098 95.4728L346.859 95.8204L346.101 95.465C345.863 95.9832 345.672 96.5121 345.529 97.0441L345.518 97.1074L345.934 97.1527L345.532 97.0373L345.528 97.0525C344.826 99.673 345.313 102.318 346.572 104.412C347.827 106.509 349.862 108.131 352.347 108.799L352.357 108.801C353.797 109.187 355.38 109.236 356.964 108.876L373.786 105.075L386.455 116.778C387.647 117.881 389.041 118.631 390.482 119.017L390.487 119.018L390.489 119.019L390.492 119.02C392.978 119.683 395.551 119.296 397.688 118.107C399.824 116.925 401.568 114.877 402.27 112.256L402.272 112.25L401.95 112.165L402.266 112.267L402.272 112.25L401.949 112.165L402.265 112.267L402.268 112.257L402.27 112.247C402.413 111.715 402.513 111.16 402.564 110.593L404.148 93.4188L419.192 84.9867L419.191 84.9875C421.579 83.6566 423.147 81.4803 423.771 79.1542L423.778 79.1248L423.78 79.1207L423.376 79.0181L422.973 78.9057L422.963 78.9423C422.396 81.0582 420.967 83.0454 418.785 84.2616L403.355 92.9092L401.731 110.521C401.682 111.042 401.591 111.548 401.461 112.034L401.461 112.035L401.865 112.144L401.466 112.015L401.458 112.041L401.457 112.044C400.818 114.432 399.227 116.3 397.277 117.38C395.32 118.469 392.97 118.821 390.703 118.215L390.595 118.619L390.708 118.217L390.694 118.213C389.384 117.862 388.11 117.179 387.019 116.168L374.027 104.166L356.774 108.064C355.323 108.393 353.879 108.348 352.569 107.997L352.562 107.995C350.297 107.385 348.438 105.907 347.288 103.986C346.138 102.075 345.694 99.6619 346.335 97.2741L346.335 97.2721L346.346 97.2378L346.35 97.202L345.94 97.1573L346.338 97.264L346.35 97.202L345.939 97.157L346.338 97.264C346.468 96.7776 346.641 96.2941 346.861 95.8187L346.103 95.4642L346.481 95.644L346.863 95.8159L346.482 95.641L346.078 95.5337L346.863 95.8159L354.262 79.7537L345.222 64.5516L345.221 64.5503C343.938 62.4066 343.695 59.9713 344.262 57.8544L344.271 57.8229C344.802 55.8466 345.997 54.1067 347.664 52.9027L347.666 52.9019C349.323 51.7006 351.498 51.0582 353.804 51.3364L371.37 53.4098L383.036 40.1157C384.212 38.7714 385.698 37.8734 387.245 37.4425C388.797 37.0074 390.41 37.0215 391.913 37.4244C393.416 37.8271 394.819 38.6209 395.946 39.7737C397.07 40.9207 397.909 42.4414 398.256 44.1938L401.712 61.5399L417.96 68.5271C420.096 69.4389 421.66 71.0833 422.493 72.9519L422.494 72.9532C423.336 74.8297 423.501 76.9327 422.973 78.9101L423.376 79.0181Z" fill="url(#paint27_linear_12_1624)"/>
<mask id="mask14_12_1624" style="mask-type:luminance" maskUnits="userSpaceOnUse" x="346" y="39" width="76" height="78">
<path d="M396.202 44.6033L399.873 63.0287L417.133 70.4502C422.228 72.6415 422.6 79.7252 417.761 82.4366L401.372 91.6216L399.647 110.329C399.137 115.853 392.516 118.395 388.441 114.631L374.642 101.883L356.317 106.023C350.906 107.246 346.443 101.733 348.763 96.6951L356.623 79.6312L347.022 63.4821C344.187 58.7136 348.05 52.7656 353.56 53.4159L372.218 55.6186L384.609 41.497C388.267 37.3265 395.118 39.1623 396.202 44.6033Z" fill="white"/>
</mask>
<g mask="url(#mask14_12_1624)">
<path d="M396.202 44.6033L399.873 63.0287L417.133 70.4502C422.228 72.6415 422.6 79.7252 417.761 82.4366L401.372 91.6216L399.647 110.329C399.137 115.853 392.516 118.395 388.441 114.631L374.642 101.883L356.317 106.023C350.906 107.246 346.443 101.733 348.763 96.6951L356.623 79.6312L347.022 63.4821C344.187 58.7136 348.05 52.7656 353.56 53.4159L372.218 55.6186L384.609 41.497C388.267 37.3265 395.118 39.1623 396.202 44.6033Z" fill="url(#paint28_linear_12_1624)"/>
</g>
<mask id="mask15_12_1624" style="mask-type:luminance" maskUnits="userSpaceOnUse" x="346" y="39" width="76" height="78">
<path d="M396.202 44.6033L399.873 63.0287L417.133 70.4502C422.228 72.6415 422.6 79.7252 417.761 82.4366L401.372 91.6216L399.647 110.329C399.137 115.853 392.516 118.395 388.441 114.631L374.642 101.883L356.317 106.023C350.906 107.246 346.443 101.733 348.763 96.6951L356.623 79.6312L347.022 63.4821C344.187 58.7136 348.05 52.7656 353.56 53.4159L372.218 55.6186L384.609 41.497C388.267 37.3265 395.118 39.1623 396.202 44.6033Z" fill="white"/>
</mask>
<g mask="url(#mask15_12_1624)">
<path d="M395.242 44.6781L399.013 63.6093L416.746 71.2348C421.071 73.0944 421.386 79.1063 417.279 81.4077L400.441 90.8445L398.668 110.066C398.236 114.754 392.616 116.912 389.157 113.717L374.979 100.618L356.152 104.872C351.559 105.91 347.771 101.232 349.741 96.9549L357.816 79.4222L347.952 62.8304C345.546 58.7841 348.825 53.7352 353.5 54.2871L372.67 56.5496L385.402 42.0404C388.507 38.5034 394.322 40.0614 395.242 44.6781Z" fill="url(#paint29_linear_12_1624)"/>
</g>
<mask id="mask16_12_1624" style="mask-type:luminance" maskUnits="userSpaceOnUse" x="346" y="39" width="76" height="78">
<path d="M396.202 44.6033L399.873 63.0287L417.133 70.4502C422.228 72.6415 422.6 79.7252 417.761 82.4366L401.372 91.6216L399.647 110.329C399.137 115.853 392.516 118.395 388.441 114.631L374.642 101.883L356.317 106.023C350.906 107.246 346.443 101.733 348.763 96.6951L356.623 79.6312L347.022 63.4821C344.187 58.7136 348.05 52.7656 353.56 53.4159L372.218 55.6186L384.609 41.497C388.267 37.3265 395.118 39.1623 396.202 44.6033Z" fill="white"/>
</mask>
<g mask="url(#mask16_12_1624)">
<path opacity="0.6" d="M394.534 44.8139L398.365 64.0429L412.439 70.0948C417.824 72.4106 418.217 79.896 413.102 82.7621L399.738 90.2514L398.633 102.235C397.971 109.41 389.369 112.713 384.075 107.823L376.482 100.809C375.701 100.088 374.616 99.7975 373.58 100.031L363.498 102.31C356.469 103.898 350.67 96.7361 353.685 90.1909L358.719 79.2605L348.7 62.4073C346.6 58.8761 349.462 54.4696 353.542 54.9513L373.013 57.25L385.946 42.5127C388.657 39.4249 393.731 40.7846 394.534 44.8139Z" fill="url(#paint30_linear_12_1624)"/>
</g>
<mask id="mask17_12_1624" style="mask-type:luminance" maskUnits="userSpaceOnUse" x="346" y="39" width="76" height="78">
<path d="M396.202 44.6033L399.873 63.0287L417.133 70.4502C422.228 72.6415 422.6 79.7252 417.761 82.4366L401.372 91.6216L399.647 110.329C399.137 115.853 392.516 118.395 388.441 114.631L374.642 101.883L356.317 106.023C350.906 107.246 346.443 101.733 348.763 96.6951L356.623 79.6312L347.022 63.4821C344.187 58.7136 348.05 52.7656 353.56 53.4159L372.218 55.6186L384.609 41.497C388.267 37.3265 395.118 39.1623 396.202 44.6033Z" fill="white"/>
</mask>
<g mask="url(#mask17_12_1624)">
<path d="M393.318 45.2667L397.219 64.8474L407.797 69.3959C413.849 71.9979 414.291 80.4105 408.544 83.6316L398.498 89.2614L397.469 100.424C396.853 107.108 388.839 110.184 383.908 105.63L376.836 99.0957C376.108 98.4241 375.098 98.1534 374.132 98.3712L364.74 100.494C358.192 101.973 352.79 95.3023 355.599 89.2047L360.289 79.0233L350.086 61.862C348.486 59.1709 350.667 55.8126 353.777 56.1801L373.605 58.52L386.773 43.5131C388.839 41.16 392.706 42.1962 393.318 45.2667Z" fill="url(#paint31_linear_12_1624)"/>
</g>
<mask id="mask18_12_1624" style="mask-type:luminance" maskUnits="userSpaceOnUse" x="346" y="39" width="76" height="78">
<path d="M396.202 44.6033L399.873 63.0287L417.133 70.4502C422.228 72.6415 422.6 79.7252 417.761 82.4366L401.372 91.6216L399.647 110.329C399.137 115.853 392.516 118.395 388.441 114.631L374.642 101.883L356.317 106.023C350.906 107.246 346.443 101.733 348.763 96.6951L356.623 79.6312L347.022 63.4821C344.187 58.7136 348.05 52.7656 353.56 53.4159L372.218 55.6186L384.609 41.497C388.267 37.3265 395.118 39.1623 396.202 44.6033Z" fill="white"/>
</mask>
<g mask="url(#mask18_12_1624)">
<path d="M394.413 84.1091C395.026 86.6687 400.929 87.4495 407.598 85.8531C414.267 84.2567 419.176 80.8865 418.564 78.3272C417.951 75.768 412.047 74.9868 405.379 76.5832C398.709 78.1793 393.799 81.5486 394.413 84.1091Z" fill="url(#paint32_linear_12_1624)"/>
</g>
<mask id="mask19_12_1624" style="mask-type:luminance" maskUnits="userSpaceOnUse" x="346" y="39" width="76" height="78">
<path d="M396.202 44.6033L399.873 63.0287L417.133 70.4502C422.228 72.6415 422.6 79.7252 417.761 82.4366L401.372 91.6216L399.647 110.329C399.137 115.853 392.516 118.395 388.441 114.631L374.642 101.883L356.317 106.023C350.906 107.246 346.443 101.733 348.763 96.6951L356.623 79.6312L347.022 63.4821C344.187 58.7136 348.05 52.7656 353.56 53.4159L372.218 55.6186L384.609 41.497C388.267 37.3265 395.118 39.1623 396.202 44.6033Z" fill="white"/>
</mask>
<g mask="url(#mask19_12_1624)">
<path d="M398.668 110.066L399.189 104.424C399.766 98.1678 393.575 93.4806 387.71 95.732C381.846 97.9834 380.381 105.609 384.996 109.872L389.159 113.716C392.616 116.911 398.236 114.754 398.668 110.066Z" fill="url(#paint33_linear_12_1624)"/>
</g>
<mask id="mask20_12_1624" style="mask-type:luminance" maskUnits="userSpaceOnUse" x="346" y="39" width="76" height="78">
<path d="M396.202 44.6033L399.873 63.0287L417.133 70.4502C422.228 72.6415 422.6 79.7252 417.761 82.4366L401.372 91.6216L399.647 110.329C399.137 115.853 392.516 118.395 388.441 114.631L374.642 101.883L356.317 106.023C350.906 107.246 346.443 101.733 348.763 96.6951L356.623 79.6312L347.022 63.4821C344.187 58.7136 348.05 52.7656 353.56 53.4159L372.218 55.6186L384.609 41.497C388.267 37.3265 395.118 39.1623 396.202 44.6033Z" fill="white"/>
</mask>
<g mask="url(#mask20_12_1624)">
<path d="M362.487 61.4052C366.77 66.1101 368.417 71.5855 366.166 73.6344C363.915 75.6832 358.619 73.5306 354.336 68.8257C350.054 64.1208 348.407 58.6456 350.658 56.5968C352.909 54.548 358.204 56.7003 362.487 61.4052Z" fill="url(#paint34_linear_12_1624)"/>
</g>
<mask id="mask21_12_1624" style="mask-type:luminance" maskUnits="userSpaceOnUse" x="346" y="39" width="76" height="78">
<path d="M396.202 44.6033L399.873 63.0287L417.133 70.4502C422.228 72.6415 422.6 79.7252 417.761 82.4366L401.372 91.6216L399.647 110.329C399.137 115.853 392.516 118.395 388.441 114.631L374.642 101.883L356.317 106.023C350.906 107.246 346.443 101.733 348.763 96.6951L356.623 79.6312L347.022 63.4821C344.187 58.7136 348.05 52.7656 353.56 53.4159L372.218 55.6186L384.609 41.497C388.267 37.3265 395.118 39.1623 396.202 44.6033Z" fill="white"/>
</mask>
<g mask="url(#mask21_12_1624)">
<path opacity="0.36" d="M378.918 116.361C412.949 82.3099 412.934 27.1183 378.882 -6.91284C377.349 -8.4445 375.759 -9.88353 374.145 -11.2771C399.179 18.0732 397.851 62.2056 370.11 89.9631C350.747 109.338 323.392 115.853 298.65 109.517L313.959 141.842C337.364 142.724 361.056 134.233 378.918 116.361Z" fill="url(#paint35_linear_12_1624)"/>
</g>
<mask id="mask22_12_1624" style="mask-type:luminance" maskUnits="userSpaceOnUse" x="346" y="39" width="76" height="78">
<path d="M396.202 44.6033L399.873 63.0287L417.133 70.4502C422.228 72.6415 422.6 79.7252 417.761 82.4366L401.372 91.6216L399.647 110.329C399.137 115.853 392.516 118.395 388.441 114.631L374.642 101.883L356.317 106.023C350.906 107.246 346.443 101.733 348.763 96.6951L356.623 79.6312L347.022 63.4821C344.187 58.7136 348.05 52.7656 353.56 53.4159L372.218 55.6186L384.609 41.497C388.267 37.3265 395.118 39.1623 396.202 44.6033Z" fill="white"/>
</mask>
<g mask="url(#mask22_12_1624)">
<path opacity="0.6" d="M389.25 147.276C437.596 98.9006 437.574 20.4923 389.199 -27.854C387.021 -30.0306 384.762 -32.0744 382.468 -34.0549C418.033 7.64217 416.147 70.3391 376.737 109.773C349.227 137.297 310.366 146.554 275.216 137.551L296.965 183.475C330.215 184.729 363.874 172.667 389.25 147.276Z" fill="url(#paint36_linear_12_1624)"/>
</g>
<mask id="mask23_12_1624" style="mask-type:luminance" maskUnits="userSpaceOnUse" x="346" y="39" width="76" height="78">
<path d="M396.202 44.6033L399.873 63.0287L417.133 70.4502C422.228 72.6415 422.6 79.7252 417.761 82.4366L401.372 91.6216L399.647 110.329C399.137 115.853 392.516 118.395 388.441 114.631L374.642 101.883L356.317 106.023C350.906 107.246 346.443 101.733 348.763 96.6951L356.623 79.6312L347.022 63.4821C344.187 58.7136 348.05 52.7656 353.56 53.4159L372.218 55.6186L384.609 41.497C388.267 37.3265 395.118 39.1623 396.202 44.6033Z" fill="white"/>
</mask>
<g mask="url(#mask23_12_1624)">
<path opacity="0.4" d="M380.737 77.5767C399.884 82.7072 417.755 78.0994 420.652 67.2849C423.55 56.4704 410.377 43.5445 391.23 38.414C372.083 33.2836 354.212 37.8914 351.314 48.7059C348.417 59.5203 361.589 72.4463 380.737 77.5767Z" fill="url(#paint37_linear_12_1624)"/>
</g>
<mask id="mask24_12_1624" style="mask-type:luminance" maskUnits="userSpaceOnUse" x="346" y="39" width="76" height="78">
<path d="M396.202 44.6033L399.873 63.0287L417.133 70.4502C422.228 72.6415 422.6 79.7252 417.761 82.4366L401.372 91.6216L399.647 110.329C399.137 115.853 392.516 118.395 388.441 114.631L374.642 101.883L356.317 106.023C350.906 107.246 346.443 101.733 348.763 96.6951L356.623 79.6312L347.022 63.4821C344.187 58.7136 348.05 52.7656 353.56 53.4159L372.218 55.6186L384.609 41.497C388.267 37.3265 395.118 39.1623 396.202 44.6033Z" fill="white"/>
</mask>
<g mask="url(#mask24_12_1624)">
<path d="M395.931 49.3749C396.245 52.2534 395.773 54.6657 394.876 54.7638C393.979 54.8619 392.998 52.6075 392.684 49.729C392.37 46.8504 392.843 44.4381 393.739 44.34C394.636 44.2419 395.618 46.4963 395.931 49.3749Z" fill="white"/>
<path d="M396.248 58.7508C396.396 60.1016 396.101 61.2414 395.59 61.2971C395.079 61.3527 394.545 60.3032 394.398 58.9524C394.25 57.6017 394.545 56.4618 395.056 56.4061C395.567 56.3515 396.101 57.401 396.248 58.7508Z" fill="white"/>
</g>
<mask id="mask25_12_1624" style="mask-type:luminance" maskUnits="userSpaceOnUse" x="346" y="39" width="76" height="78">
<path d="M396.202 44.6033L399.873 63.0287L417.133 70.4502C422.228 72.6415 422.6 79.7252 417.761 82.4366L401.372 91.6216L399.647 110.329C399.137 115.853 392.516 118.395 388.441 114.631L374.642 101.883L356.317 106.023C350.906 107.246 346.443 101.733 348.763 96.6951L356.623 79.6312L347.022 63.4821C344.187 58.7136 348.05 52.7656 353.56 53.4159L372.218 55.6186L384.609 41.497C388.267 37.3265 395.118 39.1623 396.202 44.6033Z" fill="white"/>
</mask>
<g mask="url(#mask25_12_1624)">
<path d="M362.005 102.111C360.018 102.718 358.244 102.677 358.043 102.019C357.841 101.361 359.29 100.336 361.277 99.7286C363.264 99.1218 368.18 98.2027 368.381 98.8606C368.583 99.5185 363.992 101.504 362.005 102.111Z" fill="url(#paint38_linear_12_1624)"/>
</g>
<mask id="mask26_12_1624" style="mask-type:luminance" maskUnits="userSpaceOnUse" x="346" y="39" width="76" height="78">
<path d="M396.202 44.6033L399.873 63.0287L417.133 70.4502C422.228 72.6415 422.6 79.7252 417.761 82.4366L401.372 91.6216L399.647 110.329C399.137 115.853 392.516 118.395 388.441 114.631L374.642 101.883L356.317 106.023C350.906 107.246 346.443 101.733 348.763 96.6951L356.623 79.6312L347.022 63.4821C344.187 58.7136 348.05 52.7656 353.56 53.4159L372.218 55.6186L384.609 41.497C388.267 37.3265 395.118 39.1623 396.202 44.6033Z" fill="white"/>
</mask>
<g mask="url(#mask26_12_1624)">
<path d="M389.074 108.288C390.128 109.147 390.753 110.126 390.468 110.475C390.184 110.824 389.099 110.411 388.044 109.551C386.989 108.692 384.699 106.355 384.983 106.005C385.268 105.656 388.021 107.429 389.074 108.288Z" fill="url(#paint39_linear_12_1624)"/>
</g>
<mask id="mask27_12_1624" style="mask-type:luminance" maskUnits="userSpaceOnUse" x="346" y="39" width="76" height="78">
<path d="M396.202 44.6033L399.873 63.0287L417.133 70.4502C422.228 72.6415 422.6 79.7252 417.761 82.4366L401.372 91.6216L399.647 110.329C399.137 115.853 392.516 118.395 388.441 114.631L374.642 101.883L356.317 106.023C350.906 107.246 346.443 101.733 348.763 96.6951L356.623 79.6312L347.022 63.4821C344.187 58.7136 348.05 52.7656 353.56 53.4159L372.218 55.6186L384.609 41.497C388.267 37.3265 395.118 39.1623 396.202 44.6033Z" fill="white"/>
</mask>
<g mask="url(#mask27_12_1624)">
<path d="M353.65 61.4346C355.24 63.6672 355.832 65.9739 354.971 66.5867C354.111 67.1994 352.125 65.8871 350.535 63.6546C348.944 61.422 348.352 59.1153 349.213 58.5025C350.073 57.8895 352.059 59.2021 353.65 61.4346Z" fill="white"/>
</g>
<path d="M111.577 111.368L123.894 65.401C124.771 62.131 123.836 58.6414 121.441 56.2469L87.791 22.5969C85.3963 20.2025 81.9074 19.2678 78.637 20.1441L32.6697 32.461C29.3994 33.3373 26.8452 35.8912 25.9685 39.1622L13.6515 85.1291C12.7746 88.3991 13.7096 91.8887 16.1043 94.2832L49.7546 127.933C52.1483 130.328 55.6383 131.262 58.9086 130.386L104.876 118.069C108.146 117.193 110.7 114.638 111.577 111.368Z" fill="url(#paint40_linear_12_1624)"/>
<path d="M111.577 111.368L111.156 111.255L123.473 65.2884C123.891 63.7281 123.877 62.1169 123.473 60.6081C123.069 59.1004 122.275 57.6971 121.133 56.5547L87.4828 22.9047C85.1993 20.6208 81.8697 19.7283 78.7496 20.5643L32.7823 32.8812C29.6622 33.7173 27.2246 36.154 26.3893 39.2746L14.0723 85.2415C13.6546 86.8018 13.6687 88.414 14.0727 89.9218C14.4767 91.4295 15.2706 92.8328 16.4125 93.9752L50.0628 127.625C52.3462 129.909 55.6759 130.802 58.796 129.966L104.763 117.649C107.883 116.813 110.321 114.376 111.156 111.255L111.577 111.368L111.998 111.48C111.081 114.901 108.409 117.573 104.989 118.489L59.0212 130.806C55.6006 131.723 51.9511 130.745 49.4474 128.241L15.7971 94.5906C14.5453 93.3384 13.6749 91.8 13.232 90.147C12.7891 88.4941 12.7737 86.7267 13.2317 85.0162L25.5487 39.0493C26.4656 35.6282 29.1374 32.9568 32.557 32.0405L78.5244 19.7236C81.9449 18.8071 85.5945 19.7847 88.0992 22.289L121.748 55.9393C123 57.1915 123.871 58.7299 124.314 60.3829C124.756 62.0358 124.772 63.8032 124.314 65.5137L111.998 111.48L111.577 111.368Z" fill="url(#paint41_linear_12_1624)"/>
<path d="M24.6847 58.917L114.286 86.2871L108.305 108.608C107.496 111.628 105.137 113.987 102.117 114.797L59.6622 126.172C56.6416 126.982 53.4188 126.118 51.2082 123.907L20.1294 92.8285C17.9188 90.6176 17.0553 87.395 17.864 84.374L24.6847 58.917Z" fill="url(#paint42_radial_12_1624)"/>
<path d="M29.2398 41.9199C30.0488 38.9 32.4081 36.5408 35.4287 35.7314L77.883 24.3558C80.9036 23.5465 84.1264 24.4099 86.337 26.6208L117.416 57.6995C119.626 59.9105 120.49 63.1331 119.681 66.1541L114.286 86.2875L24.6848 58.9173L29.2398 41.9199Z" fill="url(#paint43_radial_12_1624)"/>
<path d="M106.303 106.92L117.103 66.6154C117.871 63.7478 117.051 60.6887 114.952 58.5894L85.4475 29.0846C83.3484 26.9853 80.2887 26.1663 77.4215 26.9346L37.1176 37.734C34.2503 38.5022 32.0103 40.7424 31.2419 43.609L20.4425 83.9131C19.6744 86.7807 20.4941 89.8399 22.5931 91.9392L52.0977 121.444C54.1968 123.543 57.2564 124.362 60.1237 123.594L100.428 112.795C103.295 112.026 105.535 109.787 106.303 106.92Z" fill="url(#paint44_linear_12_1624)"/>
<path d="M106.303 106.919L105.883 106.807L116.682 66.5027C117.046 65.144 117.034 63.74 116.682 62.4272C116.33 61.1134 115.639 59.8915 114.644 58.898L85.1396 29.3933C83.1505 27.4038 80.2514 26.6277 77.5344 27.3557L37.2305 38.1551C34.5135 38.8831 32.3912 41.0058 31.663 43.7223L20.8637 84.0264C20.4998 85.3852 20.5124 86.7889 20.8642 88.1017C21.2159 89.4145 21.9078 90.6361 22.9014 91.6311L52.4059 121.136C54.3951 123.125 57.2941 123.901 60.0111 123.173L100.315 112.374C103.032 111.646 105.154 109.523 105.883 106.807L106.303 106.919L106.724 107.032C105.916 110.05 103.559 112.407 100.541 113.216L60.2367 124.015C57.2191 124.824 53.9999 123.961 51.7896 121.752L22.285 92.2468C21.1805 91.1422 20.4121 89.7855 20.0214 88.3275C19.6308 86.8695 19.6175 85.3093 20.0218 83.8004L30.8211 43.4963C31.6296 40.4786 33.9862 38.1212 37.0047 37.3124L77.3086 26.513C80.3261 25.7045 83.5457 26.5677 85.7557 28.7766L115.26 58.2813C116.365 59.3859 117.133 60.7427 117.523 62.202C117.914 63.66 117.928 65.2199 117.523 66.7277L106.724 107.032L106.303 106.919Z" fill="url(#paint45_linear_12_1624)"/>
<path d="M27.1696 79.0183C26.6172 76.9486 26.789 74.7468 27.6718 72.7822C28.5475 70.8194 30.1863 69.0973 32.4214 68.1426L48.4673 61.2434L51.88 44.1135C52.2421 42.2808 53.1197 40.6865 54.3009 39.482C55.4822 38.2742 56.9517 37.443 58.5244 37.0216C60.0971 36.6002 61.7853 36.5853 63.4123 37.0406C65.0375 37.4931 66.5943 38.434 67.8245 39.8412L79.345 52.9697L96.6908 50.9217C99.1038 50.6309 101.384 51.3029 103.124 52.5649C104.87 53.8251 106.12 55.6458 106.677 57.7144C107.284 59.9436 107.03 62.5101 105.681 64.7661L96.7558 79.7799L104.063 95.6435C104.292 96.1404 104.475 96.6465 104.611 97.1562C105.286 99.6632 104.821 102.196 103.616 104.2C102.413 106.209 100.466 107.759 98.0909 108.399C96.7136 108.77 95.1963 108.818 93.675 108.472L76.6379 104.622L63.8085 116.475C62.6636 117.535 61.3266 118.251 59.9475 118.62C57.5709 119.253 55.1096 118.884 53.0634 117.746C51.0175 116.613 49.3484 114.652 48.6795 112.143C48.5429 111.633 48.4478 111.104 48.3976 110.559L46.7939 93.1661L31.5572 84.6266C29.2603 83.3485 27.7584 81.2524 27.1696 79.0183Z" fill="url(#paint46_linear_12_1624)"/>
<path d="M27.1695 79.0181L26.7651 79.1253C26.1879 76.9632 26.368 74.6623 27.2893 72.6101L27.2943 72.6001L27.2896 72.6111C28.2069 70.5557 29.9226 68.7553 32.2572 67.7575L48.1001 60.9454L51.4695 44.0317C51.8478 42.1173 52.7647 40.4505 54.0023 39.1884C55.2373 37.9249 56.7739 37.0561 58.4167 36.616C60.0595 36.1758 61.8247 36.1599 63.5259 36.6366C65.2277 37.111 66.8549 38.0951 68.14 39.5648L79.5156 52.5265L96.6431 50.5043C99.1637 50.2011 101.549 50.9016 103.372 52.2238L103.371 52.2231C105.196 53.5394 106.501 55.4423 107.082 57.6033L107.082 57.6023L107.091 57.6368C107.715 59.9639 107.445 62.6327 106.042 64.9783L106.043 64.977L97.2295 79.8018L104.444 95.466L104.064 95.641L103.659 95.7492L104.444 95.466L104.447 95.4728L103.686 95.8204L104.444 95.465C104.683 95.9832 104.874 96.5121 105.016 97.0441L105.028 97.1074L104.611 97.1527L105.013 97.0373L105.017 97.0525C105.72 99.673 105.232 102.318 103.974 104.412C102.719 106.509 100.684 108.131 98.1989 108.799L98.1888 108.801C96.748 109.187 95.1657 109.236 93.5816 108.876L76.7591 105.075L64.0908 116.778C62.8988 117.881 61.5045 118.631 60.0637 119.017L60.0586 119.018L60.0566 119.019L60.0536 119.02C57.5673 119.683 54.9945 119.296 52.8577 118.107C50.7213 116.925 48.9777 114.877 48.2756 112.256L48.2739 112.25L48.595 112.165L48.2796 112.267L48.2739 112.25L48.5961 112.165L48.2806 112.267L48.2779 112.257L48.2751 112.247C48.1326 111.715 48.033 111.16 47.9811 110.593L46.398 93.4188L31.3532 84.9867L31.3545 84.9875C28.9662 83.6566 27.3983 81.4803 26.775 79.1542L26.7671 79.1248L26.766 79.1207L27.1695 79.0181L27.5725 78.9057L27.5822 78.9423C28.1492 81.0582 29.5784 83.0454 31.7607 84.2616L47.1908 92.9092L48.815 110.521C48.8632 111.042 48.9541 111.548 49.0844 112.034L49.0847 112.035L48.6806 112.144L49.0792 112.015L49.0873 112.041L49.0882 112.044C49.728 114.432 51.3189 116.3 53.269 117.38C55.2256 118.469 57.5757 118.821 59.8424 118.215L59.9507 118.619L59.8374 118.217L59.8516 118.213C61.1613 117.862 62.4354 117.179 63.527 116.168L76.5189 104.166L93.7712 108.064C95.223 108.393 96.6669 108.348 97.9766 107.997L97.9837 107.995C100.248 107.385 102.108 105.907 103.258 103.986C104.408 102.075 104.851 99.6619 104.211 97.2741L104.21 97.2721L104.2 97.2378L104.196 97.202L104.606 97.1573L104.208 97.264L104.196 97.202L104.607 97.157L104.208 97.264C104.078 96.7776 103.904 96.2941 103.685 95.8187L104.443 95.4642L104.064 95.644L103.683 95.8159L104.064 95.641L104.468 95.5337L103.683 95.8159L96.284 79.7537L105.324 64.5516L105.324 64.5503C106.607 62.4066 106.851 59.9713 106.283 57.8544L106.275 57.8229C105.743 55.8466 104.549 54.1067 102.881 52.9027L102.88 52.9019C101.223 51.7006 99.0473 51.0582 96.742 51.3364L79.1756 53.4098L67.5095 40.1157C66.3332 38.7714 64.8476 37.8734 63.3001 37.4425C61.7481 37.0074 60.1359 37.0215 58.6323 37.4244C57.1296 37.8271 55.7263 38.6209 54.5999 39.7737C53.4751 40.9207 52.6366 42.4414 52.29 44.1938L48.8339 61.5399L32.5853 68.5271C30.4497 69.4389 28.8858 71.0833 28.0524 72.9519L28.0516 72.9532C27.2094 74.8297 27.0449 76.9327 27.5725 78.9101L27.1695 79.0181Z" fill="url(#paint47_linear_12_1624)"/>
<mask id="mask28_12_1624" style="mask-type:luminance" maskUnits="userSpaceOnUse" x="29" y="39" width="76" height="78">
<path d="M54.3434 44.6033L50.6727 63.0287L33.413 70.4502C28.3175 72.6415 27.9456 79.7252 32.7844 82.4366L49.1736 91.6216L50.8988 110.329C51.4081 115.853 58.0299 118.395 62.1043 114.631L75.9039 101.883L94.2288 106.023C99.6395 107.246 104.103 101.733 101.782 96.6951L93.9225 79.6312L103.523 63.4821C106.358 58.7136 102.495 52.7656 96.9859 53.4159L78.3278 55.6186L65.9362 41.497C62.2789 37.3265 55.4275 39.1623 54.3434 44.6033Z" fill="white"/>
</mask>
<g mask="url(#mask28_12_1624)">
<path d="M54.3434 44.6033L50.6727 63.0287L33.413 70.4502C28.3175 72.6415 27.9456 79.7252 32.7844 82.4366L49.1736 91.6216L50.8988 110.329C51.4081 115.853 58.0299 118.395 62.1043 114.631L75.9039 101.883L94.2288 106.023C99.6395 107.246 104.103 101.733 101.782 96.6951L93.9225 79.6312L103.523 63.4821C106.358 58.7136 102.495 52.7656 96.9859 53.4159L78.3278 55.6186L65.9362 41.497C62.2789 37.3265 55.4275 39.1623 54.3434 44.6033Z" fill="url(#paint48_linear_12_1624)"/>
</g>
<mask id="mask29_12_1624" style="mask-type:luminance" maskUnits="userSpaceOnUse" x="29" y="39" width="76" height="78">
<path d="M54.3434 44.6033L50.6727 63.0287L33.413 70.4502C28.3175 72.6415 27.9456 79.7252 32.7844 82.4366L49.1736 91.6216L50.8988 110.329C51.4081 115.853 58.0299 118.395 62.1043 114.631L75.9039 101.883L94.2288 106.023C99.6395 107.246 104.103 101.733 101.782 96.6951L93.9225 79.6312L103.523 63.4821C106.358 58.7136 102.495 52.7656 96.9859 53.4159L78.3278 55.6186L65.9362 41.497C62.2789 37.3265 55.4275 39.1623 54.3434 44.6033Z" fill="white"/>
</mask>
<g mask="url(#mask29_12_1624)">
<path d="M55.3036 44.6781L51.5323 63.6093L33.7995 71.2348C29.4748 73.0944 29.1596 79.1063 33.2661 81.4077L50.1047 90.8445L51.8773 110.066C52.3095 114.754 57.9295 116.912 61.3883 113.717L75.5662 100.618L94.3938 104.872C98.9865 105.91 102.775 101.232 100.805 96.9549L92.7293 79.4222L102.594 62.8304C104.999 58.7841 101.72 53.7352 97.0452 54.2871L77.8754 56.5496L65.1437 42.0404C62.0381 38.5034 56.2234 40.0614 55.3036 44.6781Z" fill="url(#paint49_linear_12_1624)"/>
</g>
<mask id="mask30_12_1624" style="mask-type:luminance" maskUnits="userSpaceOnUse" x="29" y="39" width="76" height="78">
<path d="M54.3434 44.6033L50.6727 63.0287L33.413 70.4502C28.3175 72.6415 27.9456 79.7252 32.7844 82.4366L49.1736 91.6216L50.8988 110.329C51.4081 115.853 58.0299 118.395 62.1043 114.631L75.9039 101.883L94.2288 106.023C99.6395 107.246 104.103 101.733 101.782 96.6951L93.9225 79.6312L103.523 63.4821C106.358 58.7136 102.495 52.7656 96.9859 53.4159L78.3278 55.6186L65.9362 41.497C62.2789 37.3265 55.4275 39.1623 54.3434 44.6033Z" fill="white"/>
</mask>
<g mask="url(#mask30_12_1624)">
<path opacity="0.6" d="M56.0114 44.8139L52.1806 64.0429L38.107 70.0948C32.7217 72.4106 32.329 79.896 37.4432 82.7621L50.8077 90.2514L51.9129 102.235C52.5744 109.41 61.1769 112.713 66.471 107.823L74.0634 100.809C74.8442 100.088 75.9296 99.7975 76.9651 100.031L87.0473 102.31C94.0761 103.898 99.8758 96.7361 96.8608 90.1909L91.8264 79.2605L101.846 62.4073C103.945 58.8761 101.083 54.4696 97.0034 54.9513L77.532 57.25L64.6 42.5127C61.8889 39.4249 56.8144 40.7846 56.0114 44.8139Z" fill="url(#paint50_linear_12_1624)"/>
</g>
<mask id="mask31_12_1624" style="mask-type:luminance" maskUnits="userSpaceOnUse" x="29" y="39" width="76" height="78">
<path d="M54.3434 44.6033L50.6727 63.0287L33.413 70.4502C28.3175 72.6415 27.9456 79.7252 32.7844 82.4366L49.1736 91.6216L50.8988 110.329C51.4081 115.853 58.0299 118.395 62.1043 114.631L75.9039 101.883L94.2288 106.023C99.6395 107.246 104.103 101.733 101.782 96.6951L93.9225 79.6312L103.523 63.4821C106.358 58.7136 102.495 52.7656 96.9859 53.4159L78.3278 55.6186L65.9362 41.497C62.2789 37.3265 55.4275 39.1623 54.3434 44.6033Z" fill="white"/>
</mask>
<g mask="url(#mask31_12_1624)">
<path d="M57.2275 45.2667L53.3266 64.8474L42.7481 69.3959C36.6962 71.9979 36.2549 80.4105 42.0019 83.6316L52.0474 89.2614L53.0763 100.424C53.6921 107.108 61.7061 110.184 66.6374 105.63L73.7098 99.0957C74.4374 98.4241 75.4477 98.1534 76.4136 98.3712L85.8055 100.494C92.3536 101.973 97.756 95.3023 94.9469 89.2047L90.2567 79.0233L100.459 61.862C102.059 59.1709 99.8785 55.8126 96.7689 56.1801L76.9408 58.52L63.7722 43.5131C61.7064 41.16 57.839 42.1962 57.2275 45.2667Z" fill="url(#paint51_linear_12_1624)"/>
</g>
<mask id="mask32_12_1624" style="mask-type:luminance" maskUnits="userSpaceOnUse" x="29" y="39" width="76" height="78">
<path d="M54.3434 44.6033L50.6727 63.0287L33.413 70.4502C28.3175 72.6415 27.9456 79.7252 32.7844 82.4366L49.1736 91.6216L50.8988 110.329C51.4081 115.853 58.0299 118.395 62.1043 114.631L75.9039 101.883L94.2288 106.023C99.6395 107.246 104.103 101.733 101.782 96.6951L93.9225 79.6312L103.523 63.4821C106.358 58.7136 102.495 52.7656 96.9859 53.4159L78.3278 55.6186L65.9362 41.497C62.2789 37.3265 55.4275 39.1623 54.3434 44.6033Z" fill="white"/>
</mask>
<g mask="url(#mask32_12_1624)">
<path d="M56.133 84.1091C55.5195 86.6687 49.6162 87.4495 42.9476 85.8531C36.2789 84.2567 31.3691 80.8865 31.9816 78.3272C32.5941 75.768 38.4983 74.9868 45.167 76.5832C51.8366 78.1793 56.7462 81.5486 56.133 84.1091Z" fill="url(#paint52_linear_12_1624)"/>
</g>
<mask id="mask33_12_1624" style="mask-type:luminance" maskUnits="userSpaceOnUse" x="29" y="39" width="76" height="78">
<path d="M54.3434 44.6033L50.6727 63.0287L33.413 70.4502C28.3175 72.6415 27.9456 79.7252 32.7844 82.4366L49.1736 91.6216L50.8988 110.329C51.4081 115.853 58.0299 118.395 62.1043 114.631L75.9039 101.883L94.2288 106.023C99.6395 107.246 104.103 101.733 101.782 96.6951L93.9225 79.6312L103.523 63.4821C106.358 58.7136 102.495 52.7656 96.9859 53.4159L78.3278 55.6186L65.9362 41.497C62.2789 37.3265 55.4275 39.1623 54.3434 44.6033Z" fill="white"/>
</mask>
<g mask="url(#mask33_12_1624)">
<path d="M51.8773 110.066L51.3568 104.424C50.7796 98.1678 56.9703 93.4806 62.835 95.732C68.6998 97.9834 70.1641 105.609 65.5497 109.872L61.3869 113.716C57.9292 116.911 52.3095 114.754 51.8773 110.066Z" fill="url(#paint53_linear_12_1624)"/>
</g>
<mask id="mask34_12_1624" style="mask-type:luminance" maskUnits="userSpaceOnUse" x="29" y="39" width="76" height="78">
<path d="M54.3434 44.6033L50.6727 63.0287L33.413 70.4502C28.3175 72.6415 27.9456 79.7252 32.7844 82.4366L49.1736 91.6216L50.8988 110.329C51.4081 115.853 58.0299 118.395 62.1043 114.631L75.9039 101.883L94.2288 106.023C99.6395 107.246 104.103 101.733 101.782 96.6951L93.9225 79.6312L103.523 63.4821C106.358 58.7136 102.495 52.7656 96.9859 53.4159L78.3278 55.6186L65.9362 41.497C62.2789 37.3265 55.4275 39.1623 54.3434 44.6033Z" fill="white"/>
</mask>
<g mask="url(#mask34_12_1624)">
<path d="M88.0584 61.4052C83.7757 66.1101 82.1284 71.5855 84.3793 73.6344C86.6303 75.6832 91.9266 73.5306 96.2092 68.8257C100.492 64.1208 102.138 58.6456 99.8873 56.5968C97.6363 54.548 92.341 56.7003 88.0584 61.4052Z" fill="url(#paint54_linear_12_1624)"/>
</g>
<mask id="mask35_12_1624" style="mask-type:luminance" maskUnits="userSpaceOnUse" x="29" y="39" width="76" height="78">
<path d="M54.3434 44.6033L50.6727 63.0287L33.413 70.4502C28.3175 72.6415 27.9456 79.7252 32.7844 82.4366L49.1736 91.6216L50.8988 110.329C51.4081 115.853 58.0299 118.395 62.1043 114.631L75.9039 101.883L94.2288 106.023C99.6395 107.246 104.103 101.733 101.782 96.6951L93.9225 79.6312L103.523 63.4821C106.358 58.7136 102.495 52.7656 96.9859 53.4159L78.3278 55.6186L65.9362 41.497C62.2789 37.3265 55.4275 39.1623 54.3434 44.6033Z" fill="white"/>
</mask>
<g mask="url(#mask35_12_1624)">
<path opacity="0.36" d="M71.6271 116.361C37.5963 82.3099 37.6118 27.1183 71.6636 -6.91284C73.1967 -8.4445 74.7862 -9.88353 76.401 -11.2771C51.3666 18.0732 52.6949 62.2056 80.4353 89.9631C99.7985 109.338 127.153 115.853 151.895 109.517L136.586 141.842C113.182 142.724 89.4898 134.233 71.6271 116.361Z" fill="url(#paint55_linear_12_1624)"/>
</g>
<mask id="mask36_12_1624" style="mask-type:luminance" maskUnits="userSpaceOnUse" x="29" y="39" width="76" height="78">
<path d="M54.3434 44.6033L50.6727 63.0287L33.413 70.4502C28.3175 72.6415 27.9456 79.7252 32.7844 82.4366L49.1736 91.6216L50.8988 110.329C51.4081 115.853 58.0299 118.395 62.1043 114.631L75.9039 101.883L94.2288 106.023C99.6395 107.246 104.103 101.733 101.782 96.6951L93.9225 79.6312L103.523 63.4821C106.358 58.7136 102.495 52.7656 96.9859 53.4159L78.3278 55.6186L65.9362 41.497C62.2789 37.3265 55.4275 39.1623 54.3434 44.6033Z" fill="white"/>
</mask>
<g mask="url(#mask36_12_1624)">
<path opacity="0.6" d="M61.2959 147.276C12.9496 98.9006 12.972 20.4923 61.347 -27.854C63.5246 -30.0306 65.7834 -32.0744 68.0778 -34.0549C32.5129 7.64217 34.3986 70.3391 73.8089 109.773C101.318 137.297 140.179 146.554 175.33 137.551L153.581 183.475C120.33 184.729 86.6719 172.667 61.2959 147.276Z" fill="url(#paint56_linear_12_1624)"/>
</g>
<mask id="mask37_12_1624" style="mask-type:luminance" maskUnits="userSpaceOnUse" x="29" y="39" width="76" height="78">
<path d="M54.3434 44.6033L50.6727 63.0287L33.413 70.4502C28.3175 72.6415 27.9456 79.7252 32.7844 82.4366L49.1736 91.6216L50.8988 110.329C51.4081 115.853 58.0299 118.395 62.1043 114.631L75.9039 101.883L94.2288 106.023C99.6395 107.246 104.103 101.733 101.782 96.6951L93.9225 79.6312L103.523 63.4821C106.358 58.7136 102.495 52.7656 96.9859 53.4159L78.3278 55.6186L65.9362 41.497C62.2789 37.3265 55.4275 39.1623 54.3434 44.6033Z" fill="white"/>
</mask>
<g mask="url(#mask37_12_1624)">
<path opacity="0.4" d="M69.8089 77.5767C50.6618 82.7072 32.791 78.0994 29.8932 67.2849C26.9955 56.4704 40.1682 43.5445 59.3153 38.414C78.4624 33.2836 96.3333 37.8914 99.2311 48.7059C102.129 59.5203 88.9561 72.4463 69.8089 77.5767Z" fill="url(#paint57_linear_12_1624)"/>
</g>
<mask id="mask38_12_1624" style="mask-type:luminance" maskUnits="userSpaceOnUse" x="29" y="39" width="76" height="78">
<path d="M54.3434 44.6033L50.6727 63.0287L33.413 70.4502C28.3175 72.6415 27.9456 79.7252 32.7844 82.4366L49.1736 91.6216L50.8988 110.329C51.4081 115.853 58.0299 118.395 62.1043 114.631L75.9039 101.883L94.2288 106.023C99.6395 107.246 104.103 101.733 101.782 96.6951L93.9225 79.6312L103.523 63.4821C106.358 58.7136 102.495 52.7656 96.9859 53.4159L78.3278 55.6186L65.9362 41.497C62.2789 37.3265 55.4275 39.1623 54.3434 44.6033Z" fill="white"/>
</mask>
<g mask="url(#mask38_12_1624)">
<path d="M54.6141 49.3749C54.3004 52.2534 54.7727 54.6657 55.6695 54.7638C56.5664 54.8619 57.5479 52.6075 57.8615 49.729C58.1751 46.8504 57.7029 44.4381 56.806 44.34C55.9092 44.2419 54.9277 46.4963 54.6141 49.3749Z" fill="white"/>
<path d="M54.2969 58.7508C54.1496 60.1016 54.4441 61.2414 54.9553 61.2971C55.4664 61.3527 56.0002 60.3032 56.1476 58.9524C56.2949 57.6017 56.0004 56.4618 55.4892 56.4061C54.9784 56.3515 54.4445 57.401 54.2969 58.7508Z" fill="white"/>
</g>
<mask id="mask39_12_1624" style="mask-type:luminance" maskUnits="userSpaceOnUse" x="29" y="39" width="76" height="78">
<path d="M54.3434 44.6033L50.6727 63.0287L33.413 70.4502C28.3175 72.6415 27.9456 79.7252 32.7844 82.4366L49.1736 91.6216L50.8988 110.329C51.4081 115.853 58.0299 118.395 62.1043 114.631L75.9039 101.883L94.2288 106.023C99.6395 107.246 104.103 101.733 101.782 96.6951L93.9225 79.6312L103.523 63.4821C106.358 58.7136 102.495 52.7656 96.9859 53.4159L78.3278 55.6186L65.9362 41.497C62.2789 37.3265 55.4275 39.1623 54.3434 44.6033Z" fill="white"/>
</mask>
<g mask="url(#mask39_12_1624)">
<path d="M88.5403 102.111C90.5278 102.718 92.3015 102.677 92.5028 102.019C92.7041 101.361 91.2552 100.336 89.2687 99.7286C87.2812 99.1218 82.3654 98.2027 82.1641 98.8606C81.9628 99.5185 86.5538 101.504 88.5403 102.111Z" fill="url(#paint58_linear_12_1624)"/>
</g>
<mask id="mask40_12_1624" style="mask-type:luminance" maskUnits="userSpaceOnUse" x="29" y="39" width="76" height="78">
<path d="M54.3434 44.6033L50.6727 63.0287L33.413 70.4502C28.3175 72.6415 27.9456 79.7252 32.7844 82.4366L49.1736 91.6216L50.8988 110.329C51.4081 115.853 58.0299 118.395 62.1043 114.631L75.9039 101.883L94.2288 106.023C99.6395 107.246 104.103 101.733 101.782 96.6951L93.9225 79.6312L103.523 63.4821C106.358 58.7136 102.495 52.7656 96.9859 53.4159L78.3278 55.6186L65.9362 41.497C62.2789 37.3265 55.4275 39.1623 54.3434 44.6033Z" fill="white"/>
</mask>
<g mask="url(#mask40_12_1624)">
<path d="M61.4711 108.288C60.4172 109.147 59.7927 110.126 60.0777 110.475C60.3618 110.824 61.4469 110.411 62.5018 109.551C63.5567 108.692 65.8468 106.355 65.5627 106.005C65.2776 105.656 62.525 107.429 61.4711 108.288Z" fill="url(#paint59_linear_12_1624)"/>
</g>
<mask id="mask41_12_1624" style="mask-type:luminance" maskUnits="userSpaceOnUse" x="29" y="39" width="76" height="78">
<path d="M54.3434 44.6033L50.6727 63.0287L33.413 70.4502C28.3175 72.6415 27.9456 79.7252 32.7844 82.4366L49.1736 91.6216L50.8988 110.329C51.4081 115.853 58.0299 118.395 62.1043 114.631L75.9039 101.883L94.2288 106.023C99.6395 107.246 104.103 101.733 101.782 96.6951L93.9225 79.6312L103.523 63.4821C106.358 58.7136 102.495 52.7656 96.9859 53.4159L78.3278 55.6186L65.9362 41.497C62.2789 37.3265 55.4275 39.1623 54.3434 44.6033Z" fill="white"/>
</mask>
<g mask="url(#mask41_12_1624)">
<path d="M96.8959 61.4346C95.3057 63.6672 94.7137 65.9739 95.5743 66.5867C96.435 67.1994 98.4208 65.8871 100.011 63.6546C101.601 61.422 102.193 59.1153 101.333 58.5025C100.473 57.8895 98.4861 59.2021 96.8959 61.4346Z" fill="white"/>
</g>
</g>
<defs>
<filter id="filter0_d_12_1624" x="12.894" y="0" width="424.758" height="147.593" filterUnits="userSpaceOnUse" color-interpolation-filters="sRGB">
<feFlood flood-opacity="0" result="BackgroundImageFix"/>
<feColorMatrix in="SourceAlpha" type="matrix" values="0 0 0 0 0 0 0 0 0 0 0 0 0 0 0 0 0 0 127 0" result="hardAlpha"/>
<feOffset dy="8"/>
<feComposite in2="hardAlpha" operator="out"/>
<feColorMatrix type="matrix" values="0 0 0 0 0.220781 0 0 0 0 0.236344 0 0 0 0 0.3375 0 0 0 1 0"/>
<feBlend mode="normal" in2="BackgroundImageFix" result="effect1_dropShadow_12_1624"/>
<feBlend mode="normal" in="SourceGraphic" in2="effect1_dropShadow_12_1624" result="shape"/>
</filter>
<linearGradient id="paint0_linear_12_1624" x1="161.478" y1="5.77423" x2="281.113" y2="125.409" gradientUnits="userSpaceOnUse">
<stop stop-color="#EBB838"/>
<stop offset="0.0682" stop-color="#F3D15D"/>
<stop offset="0.1359" stop-color="#FAE67A"/>
<stop offset="0.1942" stop-color="#FEF28C"/>
<stop offset="0.2366" stop-color="#FFF692"/>
<stop offset="0.3724" stop-color="#EDC96B"/>
<stop offset="0.5098" stop-color="#DDA34A"/>
<stop offset="0.6199" stop-color="#D48B36"/>
<stop offset="0.6882" stop-color="#D0822E"/>
<stop offset="1" stop-color="#EBB533"/>
</linearGradient>
<linearGradient id="paint1_linear_12_1624" x1="157.335" y1="1.6309" x2="267.203" y2="111.5" gradientUnits="userSpaceOnUse">
<stop stop-color="#EBB533"/>
<stop offset="0.3118" stop-color="#D0822E"/>
<stop offset="0.3801" stop-color="#D48B36"/>
<stop offset="0.4902" stop-color="#DDA34A"/>
<stop offset="0.6276" stop-color="#EDC96B"/>
<stop offset="0.7634" stop-color="#FFF692"/>
<stop offset="0.8058" stop-color="#FEF28C"/>
<stop offset="0.8641" stop-color="#FAE67A"/>
<stop offset="0.9318" stop-color="#F3D15D"/>
<stop offset="1" stop-color="#EBB838"/>
</linearGradient>
<radialGradient id="paint2_radial_12_1624" cx="0" cy="0" r="1" gradientUnits="userSpaceOnUse" gradientTransform="translate(262.95 130.607) scale(67.9182 67.9181)">
<stop stop-color="white" stop-opacity="0.5"/>
<stop offset="0.7419" stop-color="white" stop-opacity="0"/>
</radialGradient>
<radialGradient id="paint3_radial_12_1624" cx="0" cy="0" r="1" gradientUnits="userSpaceOnUse" gradientTransform="translate(182.134 9.40717) scale(54.2787 54.2787)">
<stop stop-color="white" stop-opacity="0.5"/>
<stop offset="0.7419" stop-color="white" stop-opacity="0"/>
</radialGradient>
<linearGradient id="paint4_linear_12_1624" x1="156.837" y1="1.13258" x2="256.665" y2="100.961" gradientUnits="userSpaceOnUse">
<stop stop-color="#D69239"/>
<stop offset="0.4462" stop-color="#FFF692"/>
<stop offset="0.5318" stop-color="#FDF08D"/>
<stop offset="0.6448" stop-color="#F6E07F"/>
<stop offset="0.7733" stop-color="#EBC467"/>
<stop offset="0.912" stop-color="#DC9E46"/>
<stop offset="1" stop-color="#D0822E"/>
</linearGradient>
<linearGradient id="paint5_linear_12_1624" x1="165.621" y1="9.91719" x2="271.774" y2="116.07" gradientUnits="userSpaceOnUse">
<stop stop-color="#EBB533"/>
<stop offset="0.3118" stop-color="#D0822E"/>
<stop offset="0.3801" stop-color="#D48B36"/>
<stop offset="0.4902" stop-color="#DDA34A"/>
<stop offset="0.6276" stop-color="#EDC96B"/>
<stop offset="0.7634" stop-color="#FFF692"/>
<stop offset="0.8058" stop-color="#FEF28C"/>
<stop offset="0.8641" stop-color="#FAE67A"/>
<stop offset="0.9318" stop-color="#F3D15D"/>
<stop offset="1" stop-color="#EBB838"/>
</linearGradient>
<linearGradient id="paint6_linear_12_1624" x1="175.593" y1="27.3809" x2="241.191" y2="92.979" gradientUnits="userSpaceOnUse">
<stop stop-color="#D18631"/>
<stop offset="1" stop-color="#C46029"/>
</linearGradient>
<linearGradient id="paint7_linear_12_1624" x1="185.448" y1="37.2369" x2="243.593" y2="95.3822" gradientUnits="userSpaceOnUse">
<stop stop-color="#EBB533"/>
<stop offset="0.2779" stop-color="#ECB93A"/>
<stop offset="0.66" stop-color="#F0C54B"/>
<stop offset="1" stop-color="#F4D361"/>
</linearGradient>
<linearGradient id="paint8_linear_12_1624" x1="202.029" y1="34.6388" x2="238.146" y2="92.5578" gradientUnits="userSpaceOnUse">
<stop stop-color="white"/>
<stop offset="0.1472" stop-color="#FEF8D7"/>
<stop offset="0.3518" stop-color="#FDF0A7"/>
<stop offset="0.546" stop-color="#FCEA81"/>
<stop offset="0.7243" stop-color="#FBE565"/>
<stop offset="0.8813" stop-color="#FBE254"/>
<stop offset="1" stop-color="#FBE14F"/>
</linearGradient>
<linearGradient id="paint9_linear_12_1624" x1="201.599" y1="31.8877" x2="242.561" y2="99.9373" gradientUnits="userSpaceOnUse">
<stop stop-color="#FFF692"/>
<stop offset="0.1545" stop-color="#FDF08D"/>
<stop offset="0.3587" stop-color="#F6E07F"/>
<stop offset="0.5906" stop-color="#EBC467"/>
<stop offset="0.8412" stop-color="#DC9E46"/>
<stop offset="1" stop-color="#D0822E"/>
</linearGradient>
<linearGradient id="paint10_linear_12_1624" x1="214.191" y1="53.6803" x2="250.033" y2="107.525" gradientUnits="userSpaceOnUse">
<stop stop-color="#FFF692"/>
<stop offset="0.1545" stop-color="#FDF08D"/>
<stop offset="0.3587" stop-color="#F6E07F"/>
<stop offset="0.5906" stop-color="#EBC467"/>
<stop offset="0.8412" stop-color="#DC9E46"/>
<stop offset="1" stop-color="#D0822E"/>
</linearGradient>
<linearGradient id="paint11_linear_12_1624" x1="199.98" y1="14.0556" x2="238.692" y2="97.162" gradientUnits="userSpaceOnUse">
<stop offset="0.1022" stop-color="#FFF692"/>
<stop offset="0.1086" stop-color="#FFF591"/>
<stop offset="0.3812" stop-color="#F6DA69"/>
<stop offset="0.63" stop-color="#F0C64B"/>
<stop offset="0.8444" stop-color="#ECBA3A"/>
<stop offset="1" stop-color="#EBB533"/>
</linearGradient>
<linearGradient id="paint12_linear_12_1624" x1="246.531" y1="53.1259" x2="264.785" y2="74.2165" gradientUnits="userSpaceOnUse">
<stop stop-color="#FFF692" stop-opacity="0"/>
<stop offset="0.1545" stop-color="#FDF08D" stop-opacity="0.1545"/>
<stop offset="0.3587" stop-color="#F6E07F" stop-opacity="0.3587"/>
<stop offset="0.5906" stop-color="#EBC467" stop-opacity="0.5906"/>
<stop offset="0.8412" stop-color="#DC9E46" stop-opacity="0.8412"/>
<stop offset="1" stop-color="#D0822E"/>
</linearGradient>
<linearGradient id="paint13_linear_12_1624" x1="230.405" y1="74.8095" x2="249.564" y2="107.843" gradientUnits="userSpaceOnUse">
<stop stop-color="#FFF692" stop-opacity="0"/>
<stop offset="0.1545" stop-color="#FDF08D" stop-opacity="0.1545"/>
<stop offset="0.3587" stop-color="#F6E07F" stop-opacity="0.3587"/>
<stop offset="0.5906" stop-color="#EBC467" stop-opacity="0.5906"/>
<stop offset="0.8412" stop-color="#DC9E46" stop-opacity="0.8412"/>
<stop offset="1" stop-color="#D0822E"/>
</linearGradient>
<linearGradient id="paint14_linear_12_1624" x1="183.613" y1="48.1791" x2="204.534" y2="94.2063" gradientUnits="userSpaceOnUse">
<stop stop-color="#FFF692"/>
<stop offset="0.1711" stop-color="#FDF28C"/>
<stop offset="0.3971" stop-color="#F6E77B"/>
<stop offset="0.6538" stop-color="#ECD560"/>
<stop offset="0.9314" stop-color="#DDBC3A"/>
<stop offset="1" stop-color="#D9B530"/>
</linearGradient>
<linearGradient id="paint15_linear_12_1624" x1="259.618" y1="-57.3048" x2="165.41" y2="133.325" gradientUnits="userSpaceOnUse">
<stop stop-color="#FFF692"/>
<stop offset="1" stop-color="#DFEFF3" stop-opacity="0"/>
</linearGradient>
<linearGradient id="paint16_linear_12_1624" x1="293.993" y1="-96.8761" x2="160.156" y2="173.945" gradientUnits="userSpaceOnUse">
<stop stop-color="#FFF692"/>
<stop offset="1" stop-color="#DFEFF3" stop-opacity="0"/>
</linearGradient>
<linearGradient id="paint17_linear_12_1624" x1="224.95" y1="14.2469" x2="224.95" y2="84.2156" gradientUnits="userSpaceOnUse">
<stop stop-color="#FFF692"/>
<stop offset="1" stop-color="#DFEFF3" stop-opacity="0"/>
</linearGradient>
<linearGradient id="paint18_linear_12_1624" x1="203.567" y1="109.665" x2="216.211" y2="109.665" gradientUnits="userSpaceOnUse">
<stop stop-color="#FFF692"/>
<stop offset="1" stop-color="#DFEFF3" stop-opacity="0"/>
</linearGradient>
<linearGradient id="paint19_linear_12_1624" x1="248.028" y1="114.918" x2="242.192" y2="107.43" gradientUnits="userSpaceOnUse">
<stop stop-color="#FFF692"/>
<stop offset="1" stop-color="#DFEFF3" stop-opacity="0"/>
</linearGradient>
<linearGradient id="paint20_linear_12_1624" x1="348.613" y1="17.8301" x2="410.577" y2="125.156" gradientUnits="userSpaceOnUse">
<stop stop-color="#EBB838"/>
<stop offset="0.0682" stop-color="#F3D15D"/>
<stop offset="0.1359" stop-color="#FAE67A"/>
<stop offset="0.1942" stop-color="#FEF28C"/>
<stop offset="0.2366" stop-color="#FFF692"/>
<stop offset="0.3724" stop-color="#EDC96B"/>
<stop offset="0.5098" stop-color="#DDA34A"/>
<stop offset="0.6199" stop-color="#D48B36"/>
<stop offset="0.6882" stop-color="#D0822E"/>
<stop offset="1" stop-color="#EBB533"/>
</linearGradient>
<linearGradient id="paint21_linear_12_1624" x1="346.467" y1="14.1132" x2="403.373" y2="112.677" gradientUnits="userSpaceOnUse">
<stop stop-color="#EBB533"/>
<stop offset="0.3118" stop-color="#D0822E"/>
<stop offset="0.3801" stop-color="#D48B36"/>
<stop offset="0.4902" stop-color="#DDA34A"/>
<stop offset="0.6276" stop-color="#EDC96B"/>
<stop offset="0.7634" stop-color="#FFF692"/>
<stop offset="0.8058" stop-color="#FEF28C"/>
<stop offset="0.8641" stop-color="#FAE67A"/>
<stop offset="0.9318" stop-color="#F3D15D"/>
<stop offset="1" stop-color="#EBB838"/>
</linearGradient>
<radialGradient id="paint22_radial_12_1624" cx="0" cy="0" r="1" gradientUnits="userSpaceOnUse" gradientTransform="translate(396.741 125.389) rotate(15) scale(49.749 49.749)">
<stop stop-color="white" stop-opacity="0.5"/>
<stop offset="0.7419" stop-color="white" stop-opacity="0"/>
</radialGradient>
<radialGradient id="paint23_radial_12_1624" cx="0" cy="0" r="1" gradientUnits="userSpaceOnUse" gradientTransform="translate(362.539 24.3163) rotate(15) scale(39.7583 39.7583)">
<stop stop-color="white" stop-opacity="0.5"/>
<stop offset="0.7419" stop-color="white" stop-opacity="0"/>
</radialGradient>
<linearGradient id="paint24_linear_12_1624" x1="346.209" y1="13.6659" x2="397.915" y2="103.223" gradientUnits="userSpaceOnUse">
<stop stop-color="#D69239"/>
<stop offset="0.4462" stop-color="#FFF692"/>
<stop offset="0.5318" stop-color="#FDF08D"/>
<stop offset="0.6448" stop-color="#F6E07F"/>
<stop offset="0.7733" stop-color="#EBC467"/>
<stop offset="0.912" stop-color="#DC9E46"/>
<stop offset="1" stop-color="#D0822E"/>
</linearGradient>
<linearGradient id="paint25_linear_12_1624" x1="350.759" y1="21.5466" x2="405.74" y2="116.777" gradientUnits="userSpaceOnUse">
<stop stop-color="#EBB533"/>
<stop offset="0.3118" stop-color="#D0822E"/>
<stop offset="0.3801" stop-color="#D48B36"/>
<stop offset="0.4902" stop-color="#DDA34A"/>
<stop offset="0.6276" stop-color="#EDC96B"/>
<stop offset="0.7634" stop-color="#FFF692"/>
<stop offset="0.8058" stop-color="#FEF28C"/>
<stop offset="0.8641" stop-color="#FAE67A"/>
<stop offset="0.9318" stop-color="#F3D15D"/>
<stop offset="1" stop-color="#EBB838"/>
</linearGradient>
<linearGradient id="paint26_linear_12_1624" x1="354.503" y1="35.7931" x2="388.48" y2="94.6417" gradientUnits="userSpaceOnUse">
<stop stop-color="#D18631"/>
<stop offset="1" stop-color="#C46029"/>
</linearGradient>
<linearGradient id="paint27_linear_12_1624" x1="359.608" y1="44.6352" x2="389.724" y2="96.7976" gradientUnits="userSpaceOnUse">
<stop stop-color="#EBB533"/>
<stop offset="0.2779" stop-color="#ECB93A"/>
<stop offset="0.66" stop-color="#F0C54B"/>
<stop offset="1" stop-color="#F4D361"/>
</linearGradient>
<linearGradient id="paint28_linear_12_1624" x1="371.832" y1="45.9401" x2="386.405" y2="93.7663" gradientUnits="userSpaceOnUse">
<stop stop-color="white"/>
<stop offset="0.1472" stop-color="#FEF8D7"/>
<stop offset="0.3518" stop-color="#FDF0A7"/>
<stop offset="0.546" stop-color="#FCEA81"/>
<stop offset="0.7243" stop-color="#FBE565"/>
<stop offset="0.8813" stop-color="#FBE254"/>
<stop offset="1" stop-color="#FBE14F"/>
</linearGradient>
<linearGradient id="paint29_linear_12_1624" x1="372.049" y1="43.9122" x2="388.13" y2="99.8246" gradientUnits="userSpaceOnUse">
<stop stop-color="#FFF692"/>
<stop offset="0.1545" stop-color="#FDF08D"/>
<stop offset="0.3587" stop-color="#F6E07F"/>
<stop offset="0.5906" stop-color="#EBC467"/>
<stop offset="0.8412" stop-color="#DC9E46"/>
<stop offset="1" stop-color="#D0822E"/>
</linearGradient>
<linearGradient id="paint30_linear_12_1624" x1="376.827" y1="61.7184" x2="391.978" y2="106.61" gradientUnits="userSpaceOnUse">
<stop stop-color="#FFF692"/>
<stop offset="0.1545" stop-color="#FDF08D"/>
<stop offset="0.3587" stop-color="#F6E07F"/>
<stop offset="0.5906" stop-color="#EBC467"/>
<stop offset="0.8412" stop-color="#DC9E46"/>
<stop offset="1" stop-color="#D0822E"/>
</linearGradient>
<linearGradient id="paint31_linear_12_1624" x1="374.284" y1="30.9887" x2="385.918" y2="97.1276" gradientUnits="userSpaceOnUse">
<stop offset="0.1022" stop-color="#FFF692"/>
<stop offset="0.1086" stop-color="#FFF591"/>
<stop offset="0.3812" stop-color="#F6DA69"/>
<stop offset="0.63" stop-color="#F0C64B"/>
<stop offset="0.8444" stop-color="#ECBA3A"/>
<stop offset="1" stop-color="#EBB533"/>
</linearGradient>
<linearGradient id="paint32_linear_12_1624" x1="399.813" y1="67.457" x2="408.73" y2="85.8398" gradientUnits="userSpaceOnUse">
<stop stop-color="#FFF692" stop-opacity="0"/>
<stop offset="0.1545" stop-color="#FDF08D" stop-opacity="0.1545"/>
<stop offset="0.3587" stop-color="#F6E07F" stop-opacity="0.3587"/>
<stop offset="0.5906" stop-color="#EBC467" stop-opacity="0.5906"/>
<stop offset="0.8412" stop-color="#DC9E46" stop-opacity="0.8412"/>
<stop offset="1" stop-color="#D0822E"/>
</linearGradient>
<linearGradient id="paint33_linear_12_1624" x1="384.292" y1="79.7414" x2="391.586" y2="106.746" gradientUnits="userSpaceOnUse">
<stop stop-color="#FFF692" stop-opacity="0"/>
<stop offset="0.1545" stop-color="#FDF08D" stop-opacity="0.1545"/>
<stop offset="0.3587" stop-color="#F6E07F" stop-opacity="0.3587"/>
<stop offset="0.5906" stop-color="#EBC467" stop-opacity="0.5906"/>
<stop offset="0.8412" stop-color="#DC9E46" stop-opacity="0.8412"/>
<stop offset="1" stop-color="#D0822E"/>
</linearGradient>
<linearGradient id="paint34_linear_12_1624" x1="356.235" y1="52.0292" x2="362.311" y2="88.5609" gradientUnits="userSpaceOnUse">
<stop stop-color="#FFF692"/>
<stop offset="0.1711" stop-color="#FDF28C"/>
<stop offset="0.3971" stop-color="#F6E77B"/>
<stop offset="0.6538" stop-color="#ECD560"/>
<stop offset="0.9314" stop-color="#DDBC3A"/>
<stop offset="1" stop-color="#D9B530"/>
</linearGradient>
<linearGradient id="paint35_linear_12_1624" x1="430.008" y1="-8.19448" x2="327.214" y2="108.821" gradientUnits="userSpaceOnUse">
<stop stop-color="#FFF692"/>
<stop offset="1" stop-color="#DFEFF3" stop-opacity="0"/>
</linearGradient>
<linearGradient id="paint36_linear_12_1624" x1="461.831" y1="-29.6753" x2="315.796" y2="136.565" gradientUnits="userSpaceOnUse">
<stop stop-color="#FFF692"/>
<stop offset="1" stop-color="#DFEFF3" stop-opacity="0"/>
</linearGradient>
<linearGradient id="paint37_linear_12_1624" x1="391.915" y1="35.858" x2="378.65" y2="85.3626" gradientUnits="userSpaceOnUse">
<stop stop-color="#FFF692"/>
<stop offset="1" stop-color="#DFEFF3" stop-opacity="0"/>
</linearGradient>
<linearGradient id="paint38_linear_12_1624" x1="358.697" y1="99.3153" x2="367.642" y2="101.712" gradientUnits="userSpaceOnUse">
<stop stop-color="#FFF692"/>
<stop offset="1" stop-color="#DFEFF3" stop-opacity="0"/>
</linearGradient>
<linearGradient id="paint39_linear_12_1624" x1="389.158" y1="111.46" x2="386.448" y2="105.056" gradientUnits="userSpaceOnUse">
<stop stop-color="#FFF692"/>
<stop offset="1" stop-color="#DFEFF3" stop-opacity="0"/>
</linearGradient>
<linearGradient id="paint40_linear_12_1624" x1="101.933" y1="17.8301" x2="39.9682" y2="125.156" gradientUnits="userSpaceOnUse">
<stop stop-color="#EBB838"/>
<stop offset="0.0682" stop-color="#F3D15D"/>
<stop offset="0.1359" stop-color="#FAE67A"/>
<stop offset="0.1942" stop-color="#FEF28C"/>
<stop offset="0.2366" stop-color="#FFF692"/>
<stop offset="0.3724" stop-color="#EDC96B"/>
<stop offset="0.5098" stop-color="#DDA34A"/>
<stop offset="0.6199" stop-color="#D48B36"/>
<stop offset="0.6882" stop-color="#D0822E"/>
<stop offset="1" stop-color="#EBB533"/>
</linearGradient>
<linearGradient id="paint41_linear_12_1624" x1="104.079" y1="14.1132" x2="47.1726" y2="112.677" gradientUnits="userSpaceOnUse">
<stop stop-color="#EBB533"/>
<stop offset="0.3118" stop-color="#D0822E"/>
<stop offset="0.3801" stop-color="#D48B36"/>
<stop offset="0.4902" stop-color="#DDA34A"/>
<stop offset="0.6276" stop-color="#EDC96B"/>
<stop offset="0.7634" stop-color="#FFF692"/>
<stop offset="0.8058" stop-color="#FEF28C"/>
<stop offset="0.8641" stop-color="#FAE67A"/>
<stop offset="0.9318" stop-color="#F3D15D"/>
<stop offset="1" stop-color="#EBB838"/>
</linearGradient>
<radialGradient id="paint42_radial_12_1624" cx="0" cy="0" r="1" gradientUnits="userSpaceOnUse" gradientTransform="translate(53.8043 125.389) rotate(165) scale(49.749 49.749)">
<stop stop-color="white" stop-opacity="0.5"/>
<stop offset="0.7419" stop-color="white" stop-opacity="0"/>
</radialGradient>
<radialGradient id="paint43_radial_12_1624" cx="0" cy="0" r="1" gradientUnits="userSpaceOnUse" gradientTransform="translate(88.0063 24.3163) rotate(165) scale(39.7583 39.7583)">
<stop stop-color="white" stop-opacity="0.5"/>
<stop offset="0.7419" stop-color="white" stop-opacity="0"/>
</radialGradient>
<linearGradient id="paint44_linear_12_1624" x1="104.336" y1="13.6659" x2="52.6308" y2="103.223" gradientUnits="userSpaceOnUse">
<stop stop-color="#D69239"/>
<stop offset="0.4462" stop-color="#FFF692"/>
<stop offset="0.5318" stop-color="#FDF08D"/>
<stop offset="0.6448" stop-color="#F6E07F"/>
<stop offset="0.7733" stop-color="#EBC467"/>
<stop offset="0.912" stop-color="#DC9E46"/>
<stop offset="1" stop-color="#D0822E"/>
</linearGradient>
<linearGradient id="paint45_linear_12_1624" x1="99.7866" y1="21.5466" x2="44.8053" y2="116.777" gradientUnits="userSpaceOnUse">
<stop stop-color="#EBB533"/>
<stop offset="0.3118" stop-color="#D0822E"/>
<stop offset="0.3801" stop-color="#D48B36"/>
<stop offset="0.4902" stop-color="#DDA34A"/>
<stop offset="0.6276" stop-color="#EDC96B"/>
<stop offset="0.7634" stop-color="#FFF692"/>
<stop offset="0.8058" stop-color="#FEF28C"/>
<stop offset="0.8641" stop-color="#FAE67A"/>
<stop offset="0.9318" stop-color="#F3D15D"/>
<stop offset="1" stop-color="#EBB838"/>
</linearGradient>
<linearGradient id="paint46_linear_12_1624" x1="96.0422" y1="35.7931" x2="62.066" y2="94.6417" gradientUnits="userSpaceOnUse">
<stop stop-color="#D18631"/>
<stop offset="1" stop-color="#C46029"/>
</linearGradient>
<linearGradient id="paint47_linear_12_1624" x1="90.9376" y1="44.6352" x2="60.8217" y2="96.7976" gradientUnits="userSpaceOnUse">
<stop stop-color="#EBB533"/>
<stop offset="0.2779" stop-color="#ECB93A"/>
<stop offset="0.66" stop-color="#F0C54B"/>
<stop offset="1" stop-color="#F4D361"/>
</linearGradient>
<linearGradient id="paint48_linear_12_1624" x1="78.7139" y1="45.9401" x2="64.1406" y2="93.7663" gradientUnits="userSpaceOnUse">
<stop stop-color="white"/>
<stop offset="0.1472" stop-color="#FEF8D7"/>
<stop offset="0.3518" stop-color="#FDF0A7"/>
<stop offset="0.546" stop-color="#FCEA81"/>
<stop offset="0.7243" stop-color="#FBE565"/>
<stop offset="0.8813" stop-color="#FBE254"/>
<stop offset="1" stop-color="#FBE14F"/>
</linearGradient>
<linearGradient id="paint49_linear_12_1624" x1="78.4961" y1="43.9122" x2="62.4154" y2="99.8246" gradientUnits="userSpaceOnUse">
<stop stop-color="#FFF692"/>
<stop offset="0.1545" stop-color="#FDF08D"/>
<stop offset="0.3587" stop-color="#F6E07F"/>
<stop offset="0.5906" stop-color="#EBC467"/>
<stop offset="0.8412" stop-color="#DC9E46"/>
<stop offset="1" stop-color="#D0822E"/>
</linearGradient>
<linearGradient id="paint50_linear_12_1624" x1="73.7187" y1="61.7184" x2="58.5679" y2="106.61" gradientUnits="userSpaceOnUse">
<stop stop-color="#FFF692"/>
<stop offset="0.1545" stop-color="#FDF08D"/>
<stop offset="0.3587" stop-color="#F6E07F"/>
<stop offset="0.5906" stop-color="#EBC467"/>
<stop offset="0.8412" stop-color="#DC9E46"/>
<stop offset="1" stop-color="#D0822E"/>
</linearGradient>
<linearGradient id="paint51_linear_12_1624" x1="76.2616" y1="30.9887" x2="64.6273" y2="97.1276" gradientUnits="userSpaceOnUse">
<stop offset="0.1022" stop-color="#FFF692"/>
<stop offset="0.1086" stop-color="#FFF591"/>
<stop offset="0.3812" stop-color="#F6DA69"/>
<stop offset="0.63" stop-color="#F0C64B"/>
<stop offset="0.8444" stop-color="#ECBA3A"/>
<stop offset="1" stop-color="#EBB533"/>
</linearGradient>
<linearGradient id="paint52_linear_12_1624" x1="50.7322" y1="67.457" x2="41.8155" y2="85.8398" gradientUnits="userSpaceOnUse">
<stop stop-color="#FFF692" stop-opacity="0"/>
<stop offset="0.1545" stop-color="#FDF08D" stop-opacity="0.1545"/>
<stop offset="0.3587" stop-color="#F6E07F" stop-opacity="0.3587"/>
<stop offset="0.5906" stop-color="#EBC467" stop-opacity="0.5906"/>
<stop offset="0.8412" stop-color="#DC9E46" stop-opacity="0.8412"/>
<stop offset="1" stop-color="#D0822E"/>
</linearGradient>
<linearGradient id="paint53_linear_12_1624" x1="66.2531" y1="79.7414" x2="58.9597" y2="106.746" gradientUnits="userSpaceOnUse">
<stop stop-color="#FFF692" stop-opacity="0"/>
<stop offset="0.1545" stop-color="#FDF08D" stop-opacity="0.1545"/>
<stop offset="0.3587" stop-color="#F6E07F" stop-opacity="0.3587"/>
<stop offset="0.5906" stop-color="#EBC467" stop-opacity="0.5906"/>
<stop offset="0.8412" stop-color="#DC9E46" stop-opacity="0.8412"/>
<stop offset="1" stop-color="#D0822E"/>
</linearGradient>
<linearGradient id="paint54_linear_12_1624" x1="94.3108" y1="52.0292" x2="88.2342" y2="88.5609" gradientUnits="userSpaceOnUse">
<stop stop-color="#FFF692"/>
<stop offset="0.1711" stop-color="#FDF28C"/>
<stop offset="0.3971" stop-color="#F6E77B"/>
<stop offset="0.6538" stop-color="#ECD560"/>
<stop offset="0.9314" stop-color="#DDBC3A"/>
<stop offset="1" stop-color="#D9B530"/>
</linearGradient>
<linearGradient id="paint55_linear_12_1624" x1="20.5376" y1="-8.19448" x2="123.331" y2="108.821" gradientUnits="userSpaceOnUse">
<stop stop-color="#FFF692"/>
<stop offset="1" stop-color="#DFEFF3" stop-opacity="0"/>
</linearGradient>
<linearGradient id="paint56_linear_12_1624" x1="-11.2857" y1="-29.6753" x2="134.75" y2="136.565" gradientUnits="userSpaceOnUse">
<stop stop-color="#FFF692"/>
<stop offset="1" stop-color="#DFEFF3" stop-opacity="0"/>
</linearGradient>
<linearGradient id="paint57_linear_12_1624" x1="58.6309" y1="35.858" x2="71.8956" y2="85.3626" gradientUnits="userSpaceOnUse">
<stop stop-color="#FFF692"/>
<stop offset="1" stop-color="#DFEFF3" stop-opacity="0"/>
</linearGradient>
<linearGradient id="paint58_linear_12_1624" x1="91.849" y1="99.3153" x2="82.9034" y2="101.712" gradientUnits="userSpaceOnUse">
<stop stop-color="#FFF692"/>
<stop offset="1" stop-color="#DFEFF3" stop-opacity="0"/>
</linearGradient>
<linearGradient id="paint59_linear_12_1624" x1="61.3876" y1="111.46" x2="64.0973" y2="105.056" gradientUnits="userSpaceOnUse">
<stop stop-color="#FFF692"/>
<stop offset="1" stop-color="#DFEFF3" stop-opacity="0"/>
</linearGradient>
</defs>
</svg>
